<svg xmlns="http://www.w3.org/2000/svg" fill="currentColor" width="28" height="28" viewBox="0 0 28 28" data-thumbprint-id="content-actions-attach"> <path fill-rule="evenodd" d="M23.123,4.877 C21.913,3.666 20.303,3 18.591,3 C16.878,3 15.269,3.666 14.059,4.877 C13.668,5.268 13.668,5.901 14.059,6.291 C14.449,6.682 15.082,6.682 15.473,6.291 C16.306,5.458 17.413,5 18.591,5 C19.769,5 20.876,5.458 21.709,6.291 C22.542,7.124 23,8.231 23,9.409 C23,10.587 22.542,11.694 21.709,12.527 L12.528,21.708 C11.695,22.541 10.588,23 9.41,23 C8.232,23 7.125,22.541 6.292,21.708 C5.459,20.875 5,19.768 5,18.59 C5,17.412 5.459,16.305 6.292,15.472 L11.265,10.499 C11.93,9.835 13.011,9.834 13.676,10.499 C13.998,10.821 14.175,11.249 14.175,11.705 C14.175,12.16 13.998,12.588 13.676,12.91 L8.703,17.883 C8.312,18.273 8.312,18.906 8.703,19.297 C9.094,19.688 9.727,19.688 10.117,19.297 L15.09,14.324 C16.535,12.88 16.535,10.529 15.09,9.085 C13.645,7.64 11.295,7.64 9.851,9.085 L4.878,14.058 C3.667,15.268 3,16.877 3,18.59 C3,20.302 3.667,21.912 4.878,23.122 C6.088,24.333 7.698,25 9.41,25 C11.123,25 12.732,24.333 13.942,23.122 L23.123,13.941 C24.334,12.731 25,11.122 25,9.409 C25,7.697 24.334,6.087 23.123,4.877"/> </svg>