<svg xmlns="http://www.w3.org/2000/svg" width="28" height="28" viewBox="0 0 28 28" fill="currentColor" data-thumbprint-id="feature-bookmark"> <path d="M14.0003,21.118034 L6.4475136,24.8944272 C5.7826125,25.2268777 5.0003,24.743382 5.0003,24 L5.0003,6 C5.0003,4.34371525 6.34401525,3 8.0003,3 L20.0003,3 C21.6565847,3 23.0003,4.34371525 23.0003,6 L23.0003,24 C23.0003,24.743382 22.2179875,25.2268777 21.5530864,24.8944272 L14.0003,21.118034 Z M21.0003,6 C21.0003,5.44828475 20.5520153,5 20.0003,5 L8.0003,5 C7.44858475,5 7.0003,5.44828475 7.0003,6 L7.0003,22.381966 L13.5530864,19.1055728 C13.8346139,18.9648091 14.1659861,18.9648091 14.4475136,19.1055728 L21.0003,22.381966 L21.0003,6 Z"/> </svg>