<svg version="1.1" id="Layer_2" xmlns="http://www.w3.org/2000/svg" xmlns:xlink="http://www.w3.org/1999/xlink" x="0px" y="0px" width="28px" height="28px" viewBox="0 0 28 28" enable-background="new 0 0 28 28" xml:space="preserve" fill="currentColor" data-thumbprint-id="navigation-close"> <path d="M15.4141,14l5.6575-5.6575c0.3903-0.3903,0.3903-1.0231,0-1.4135c-0.3906-0.3906-1.024-0.3906-1.4147,0
	L14,12.5859L8.3428,6.9288c-0.3905-0.3905-1.0237-0.3905-1.4142,0c-0.3904,0.3904-0.3904,1.0235,0,1.4139L12.5859,14l-5.6573,5.6573
	c-0.3904,0.3904-0.3904,1.0235,0,1.4139c0.3905,0.3905,1.0237,0.3905,1.4142,0L14,15.4141l5.6601,5.6601
	c0.3889,0.3889,1.0194,0.3889,1.4083,0c0.3921-0.3921,0.3921-1.0277,0-1.4198L15.4141,14z"/> </svg>
