<svg xmlns="http://www.w3.org/2000/svg" width="18" height="18" viewBox="0 0 18 18" fill="currentColor" data-thumbprint-id="content-actions-trash"> <path d="M5.491,15.029 L4.975,7 L13.024,7 L12.51,15 L5.491,15.029 Z M7,4 C7,3.449 7.449,3 8,3 L10,3 C10.552,3 11,3.449 11,4 L11,5 L7,5 L7,4 Z M16,6 C16,5.448 15.553,5 15,5 L13,5 L13,4 C13,2.346 11.654,1 10,1 L8,1 C6.345,1 5,2.346 5,4 L5,5 L3,5 C2.448,5 2,5.448 2,6 C2,6.542 2.433,6.978 2.97,6.994 L3.494,15.151 C3.554,16.188 4.431,17 5.491,17 L12.51,17 C13.568,17 14.445,16.188 14.505,15.157 L15.029,6.994 C15.567,6.978 16,6.542 16,6 Z"/> </svg>