<svg xmlns="http://www.w3.org/2000/svg" fill="currentColor" width="28" height="28" viewBox="0 0 28 28" data-thumbprint-id="content-actions-add"> <path fill-rule="evenodd" d="M21.0750375,21.0747221 C17.174087,24.9745257 10.825913,24.9745257 6.92496248,21.0747221 C3.02501251,17.1739179 3.02501251,10.825982 6.92496248,6.92517789 C8.87593797,4.97527607 11.4382191,4.00082538 14.0005003,4.00082538 C16.5617809,4.00082538 19.1250625,4.97527607 21.0750375,6.92517789 C24.9749875,10.825982 24.9749875,17.1739179 21.0750375,21.0747221 M22.4897449,5.51052362 C17.8094047,0.830359041 10.1925963,0.829358578 5.51025513,5.51052362 C0.829914957,10.1916887 0.829914957,17.8082113 5.51025513,22.4893763 C7.85142571,24.8294586 10.925963,26 14.0005003,26 C17.074037,26 20.1495748,24.8294586 22.4897449,22.4893763 C27.170085,17.8082113 27.170085,10.1916887 22.4897449,5.51052362 M17.997999,12.9999875 L14.997999,12.9999875 L14.997999,9.99859935 C14.997999,9.44534347 14.549999,8.99813664 13.997999,8.99813664 C13.444999,8.99813664 12.997999,9.44534347 12.997999,9.99859935 L12.997999,12.9999875 L9.997999,12.9999875 C9.444999,12.9999875 8.997999,13.4471943 8.997999,14.0004502 C8.997999,14.5527056 9.444999,15.0009129 9.997999,15.0009129 L12.997999,15.0009129 L12.997999,18.0023011 C12.997999,18.5545565 13.444999,19.0027638 13.997999,19.0027638 C14.549999,19.0027638 14.997999,18.5545565 14.997999,18.0023011 L14.997999,15.0009129 L17.997999,15.0009129 C18.549999,15.0009129 18.997999,14.5527056 18.997999,14.0004502 C18.997999,13.4471943 18.549999,12.9999875 17.997999,12.9999875"/> </svg>