<svg xmlns="http://www.w3.org/2000/svg" fill="currentColor" width="18" height="18" viewBox="0 0 18 18" data-thumbprint-id="content-actions-edit"> <path fill-rule="evenodd" d="M14.6152,5.2424 L13.3822,6.4754 L11.5222,4.6174 L12.7562,3.3834 C13.2682,2.8704 14.1022,2.8704 14.6152,3.3834 C15.1272,3.8964 15.1272,4.7294 14.6152,5.2424 L14.6152,5.2424 Z M5.9632,13.8944 L3.3742,14.6244 L4.1042,12.0354 L10.1082,6.0314 L11.9692,7.8894 L5.9632,13.8944 Z M16.0292,1.9694 C14.7372,0.6774 12.6352,0.6764 11.3432,1.9694 L2.3212,10.9904 L1.0432,15.5204 C0.9292,15.9244 1.0442,16.3604 1.3412,16.6584 C1.5612,16.8784 1.8592,16.9984 2.1642,16.9984 C2.2692,16.9984 2.3762,16.9844 2.4792,16.9544 L7.0092,15.6774 L16.0292,6.6564 C17.3212,5.3644 17.3212,3.2614 16.0292,1.9694 L16.0292,1.9694 Z"/> </svg>