<svg width="164" height="96" viewBox="0 0 164 96" fill="none" xmlns="http://www.w3.org/2000/svg">
<path d="M134.315 95.9642C107.883 96.8731 78.1104 80.1975 42.5003 78.6545C-0.628971 76.7804 -24.9858 50.6447 39.4465 12.5858C60.3279 0.241755 112.556 -12.063 141.682 22.938C144.849 26.7646 194.659 93.8994 134.315 95.9642Z" fill="#EFF1F8"/>
<path d="M36 63C45.9411 63 54 55.165 54 45.5C54 35.835 45.9411 28 36 28C26.0589 28 18 35.835 18 45.5C18 55.165 26.0589 63 36 63Z" fill="#5963E6"/>
<mask id="mask0" mask-type="alpha" maskUnits="userSpaceOnUse" x="18" y="28" width="36" height="35">
<path d="M36 63C45.9411 63 54 55.165 54 45.5C54 35.835 45.9411 28 36 28C26.0589 28 18 35.835 18 45.5C18 55.165 26.0589 63 36 63Z" fill="white"/>
</mask>
<g mask="url(#mask0)">
<path d="M33 51.1561L34.0185 48.5588L39.2269 48L40.2876 51.1561L41 57H34.5726L33 51.1561Z" fill="#E5C4B5"/>
<path d="M30.574 38.2727C30.574 38.2727 28 36.957 28 40.1051C28 43.2532 31 42.9949 31 42.9949L30.574 38.2727Z" fill="#EDD4CA"/>
<path d="M42.3805 38.2772C42.3805 38.2772 44.9356 36.9539 44.999 40.0899C45.0625 43.2259 42 42.9963 42 42.9963L42.3805 38.2772Z" fill="#EDD4CA"/>
<path d="M36.4736 66.9888C15.5365 67.447 23.4776 53.7131 23.4776 53.7131C26.7309 50.7022 32.4564 50 32.4564 50L36.4619 54.7604C37.903 53.2579 39.2542 51.6682 40.5082 50C40.5082 50 45.7964 50.6308 49.0965 53.374C49.0965 53.374 58.2328 66.5127 36.4736 66.9888Z" fill="#CC5B45"/>
<path d="M36.5 49C40.0899 49 43 45.4183 43 41C43 36.5817 40.0899 33 36.5 33C32.9101 33 30 36.5817 30 41C30 45.4183 32.9101 49 36.5 49Z" fill="#EDD4CA"/>
<path d="M31.1467 37.126C31.7616 36.3228 32.6501 35.7141 33.6828 35.3887C35.0442 35.1451 36.4567 35.2658 37.7405 35.7352C40.0119 36.4526 42.2171 34.603 43 32.7291C42.5544 33.0654 41.9547 33.194 41.3846 33.0756C40.8267 32.963 40.2835 32.7994 39.7638 32.5876C38.1694 31.9908 36.4058 31.8443 34.7137 32.1679C33.0068 32.5032 31.5323 33.448 30.6395 34.7787C30.2333 35.4434 30.0139 36.185 30 36.9406C30 37.4286 30.0331 38.7999 30.5844 39C30.9593 38.3119 30.6947 37.78 31.1467 37.126Z" fill="#492102"/>
<path d="M31.0396 39C30.101 38.1353 29.7649 36.8645 30.1673 35.7022C30.7129 34.3515 31.8053 33.2451 33.2178 32.6126C34.6907 31.9335 36.3285 31.6102 37.9759 31.6731C38.5158 31.7191 39.0591 31.7191 39.599 31.6731C40.1455 31.6294 40.65 31.3869 41 31C40.7515 32.6659 39.0122 34.2446 36.9292 34.6804C35.655 34.9516 34.4338 34.8838 33.2971 35.4649C32.0442 36.3074 31.2272 37.5867 31.0396 39Z" fill="#492102"/>
<path d="M42.6695 41C42.6695 41 42.0304 37.4083 39.2516 36.5999C37.2579 36.006 37.7928 33.2371 39.8213 33.0225C40.5159 32.951 40.4117 33.0225 41.3635 33.645C41.3843 33.645 43.8782 37.4584 42.6695 41Z" fill="#492102"/>
<path d="M32 34.944C31.4952 34.1371 30.8088 33.4699 30 33C30 33 31.1908 34.446 30.3757 36L32 34.944Z" fill="#492102"/>
</g>
<g filter="url(#filter0_d)">
<path d="M131.207 27H74.4442C71.8015 27.0061 69.6625 29.0887 69.6625 31.6556V39L64 44.5L69.6625 50V57.3444C69.6625 59.9156 71.8085 62 74.4557 62H131.207C133.854 62 136 59.9156 136 57.3444V31.6556C136 30.4208 135.495 29.2367 134.596 28.3636C133.697 27.4905 132.478 27 131.207 27Z" fill="white"/>
</g>
<path d="M93 50C94.6569 50 96 48.6569 96 47C96 45.3431 94.6569 44 93 44C91.3431 44 90 45.3431 90 47C90 48.6569 91.3431 50 93 50Z" fill="#D3D4D5"/>
<path d="M103 44C104.657 44 106 42.6569 106 41C106 39.3431 104.657 38 103 38C101.343 38 100 39.3431 100 41C100 42.6569 101.343 44 103 44Z" fill="#D3D4D5"/>
<path d="M113 49C114.657 49 116 47.6569 116 46C116 44.3431 114.657 43 113 43C111.343 43 110 44.3431 110 46C110 47.6569 111.343 49 113 49Z" fill="#D3D4D5"/>
<defs>
<filter id="filter0_d" x="57.2573" y="22.5049" width="85.4854" height="48.4854" filterUnits="userSpaceOnUse" color-interpolation-filters="sRGB">
<feFlood flood-opacity="0" result="BackgroundImageFix"/>
<feColorMatrix in="SourceAlpha" type="matrix" values="0 0 0 0 0 0 0 0 0 0 0 0 0 0 0 0 0 0 127 0"/>
<feOffset dy="2.24757"/>
<feGaussianBlur stdDeviation="3.37136"/>
<feColorMatrix type="matrix" values="0 0 0 0 0.184314 0 0 0 0 0.188235 0 0 0 0 0.2 0 0 0 0.195822 0"/>
<feBlend mode="normal" in2="BackgroundImageFix" result="effect1_dropShadow"/>
<feBlend mode="normal" in="SourceGraphic" in2="effect1_dropShadow" result="shape"/>
</filter>
</defs>
</svg>
