<svg xmlns="http://www.w3.org/2000/svg" width="18" height="18" viewBox="0 0 18 18" fill="currentColor">
  <path d="M14.7272727,15.0053933 C14.8775334,15.0053933 15,14.8829267 15,14.732666 L15,7.27272727 C15,7.12246657 14.8775334,7 14.7272727,7 L3.27272727,7 C3.12246657,7 3,7.12246657 3,7.27272727 L3,14.732666 C3,14.8829267 3.12246657,15.0053933 3.27272727,15.0053933 L14.7272727,15.0053933 Z M5.00646973,5 L5.00646973,3.27336364 C5.00646973,2.01789707 6.02436679,1 7.27983336,1 L10.7253418,1 C11.9808084,1 12.9987054,2.01789707 12.9987054,3.27336364 L12.9987054,5 L14.7272727,5 C15.9821029,5 17,6.01789707 17,7.27272727 L17,14.732666 C17,15.9874962 15.9821029,17.0053933 14.7272727,17.0053933 L3.27272727,17.0053933 C2.01789707,17.0053933 1,15.9874962 1,14.732666 L1,7.27272727 C1,6.01789707 2.01789707,5 3.27272727,5 L5.00646973,5 Z M7.00646973,5 L10.9987054,5 L10.9987054,3.27336364 C10.9987054,3.12246657 10.8762389,3 10.7253418,3 L7.27983336,3 C7.12893629,3 7.00646973,3.12246657 7.00646973,3.27336364 L7.00646973,5 Z M11.1398017,8.31412961 L8.69168758,11.7414894 L7.14632823,10.7799325 C6.79463747,10.5611027 6.33213917,10.6688077 6.11330936,11.0204985 C5.89447956,11.3721893 6.00218464,11.8346876 6.3538754,12.0535174 L8.49673254,13.3868507 C8.83269692,13.5958952 9.27326812,13.5079742 9.50325906,13.1859869 L12.3604019,9.1859869 C12.6011587,8.84892746 12.5230899,8.38051489 12.1860305,8.13975815 C11.848971,7.89900141 11.3805585,7.97707017 11.1398017,8.31412961 Z"/>
</svg>
