<svg xmlns="http://www.w3.org/2000/svg" style="width:0; height:0; visibility:hidden;">
    <symbol id="ab-16" viewBox="0 0 16 16">
       <g id="Layer_1"> <path d="M10.544,11H1c-0.276,0-0.5-0.224-0.5-0.5S0.724,10,1,10h9.544C12.265,10,14,9.072,14,7s-1.735-3-3.456-3H7.5
		C7.224,4,7,3.776,7,3.5S7.224,3,7.5,3h3.044C13.168,3,15,4.645,15,7S13.168,11,10.544,11z"/> <path d="M4.044,14.087c-0.128,0-0.256-0.049-0.354-0.146l-3.044-3.043C0.553,10.804,0.5,10.677,0.5,10.544s0.053-0.26,0.146-0.354
		L3.69,7.146c0.195-0.195,0.512-0.195,0.707,0s0.195,0.512,0,0.707l-2.69,2.69l2.69,2.689c0.195,0.195,0.195,0.512,0,0.707
		C4.3,14.038,4.172,14.087,4.044,14.087z"/> </g>   
    </symbol>
    <symbol id="add-16" viewBox="0 0 16 16">
       <g id="Layer_1"> <g id="XMLID_566_"> <path d="M7.5,15.5C7.224,15.5,7,15.276,7,15V2c0-0.276,0.224-0.5,0.5-0.5S8,1.724,8,2v13C8,15.276,7.776,15.5,7.5,15.5z"/> <path d="M14,9H1C0.724,9,0.5,8.776,0.5,8.5S0.724,8,1,8h13c0.276,0,0.5,0.224,0.5,0.5S14.276,9,14,9z"/> </g> </g>   
    </symbol>
    <symbol id="align-center-16" viewBox="0 0 16 16">
       <g id="Layer_1"> <path d="M13,5H3C2.724,5,2.5,4.776,2.5,4.5S2.724,4,3,4h10c0.276,0,0.5,0.224,0.5,0.5S13.276,5,13,5z"/> <path d="M11,7H5C4.724,7,4.5,6.776,4.5,6.5S4.724,6,5,6h6c0.276,0,0.5,0.224,0.5,0.5S11.276,7,11,7z"/> <path d="M13,9H3C2.724,9,2.5,8.776,2.5,8.5S2.724,8,3,8h10c0.276,0,0.5,0.224,0.5,0.5S13.276,9,13,9z"/> <path d="M13,13H3c-0.276,0-0.5-0.224-0.5-0.5S2.724,12,3,12h10c0.276,0,0.5,0.224,0.5,0.5S13.276,13,13,13z"/> <path d="M11,11H5c-0.276,0-0.5-0.224-0.5-0.5S4.724,10,5,10h6c0.276,0,0.5,0.224,0.5,0.5S11.276,11,11,11z"/> </g>   
    </symbol>
    <symbol id="align-justify-16" viewBox="0 0 16 16">
       <g id="Layer_1"> <path d="M13,7H3C2.724,7,2.5,6.776,2.5,6.5S2.724,6,3,6h10c0.276,0,0.5,0.224,0.5,0.5S13.276,7,13,7z"/> <path d="M13,5H3C2.724,5,2.5,4.776,2.5,4.5S2.724,4,3,4h10c0.276,0,0.5,0.224,0.5,0.5S13.276,5,13,5z"/> <path d="M13,9H3C2.724,9,2.5,8.776,2.5,8.5S2.724,8,3,8h10c0.276,0,0.5,0.224,0.5,0.5S13.276,9,13,9z"/> <path d="M13,11H3c-0.276,0-0.5-0.224-0.5-0.5S2.724,10,3,10h10c0.276,0,0.5,0.224,0.5,0.5S13.276,11,13,11z"/> <path d="M11,13H3c-0.276,0-0.5-0.224-0.5-0.5S2.724,12,3,12h8c0.276,0,0.5,0.224,0.5,0.5S11.276,13,11,13z"/> </g>   
    </symbol>
    <symbol id="align-left-16" viewBox="0 0 16 16">
       <g id="Layer_1"> <path d="M12,5H3C2.724,5,2.5,4.776,2.5,4.5S2.724,4,3,4h9c0.276,0,0.5,0.224,0.5,0.5S12.276,5,12,5z"/> <path d="M9,7H3C2.724,7,2.5,6.776,2.5,6.5S2.724,6,3,6h6c0.276,0,0.5,0.224,0.5,0.5S9.276,7,9,7z"/> <path d="M12,9H3C2.724,9,2.5,8.776,2.5,8.5S2.724,8,3,8h9c0.276,0,0.5,0.224,0.5,0.5S12.276,9,12,9z"/> <path d="M12,13H3c-0.276,0-0.5-0.224-0.5-0.5S2.724,12,3,12h9c0.276,0,0.5,0.224,0.5,0.5S12.276,13,12,13z"/> <path d="M9,11H3c-0.276,0-0.5-0.224-0.5-0.5S2.724,10,3,10h6c0.276,0,0.5,0.224,0.5,0.5S9.276,11,9,11z"/> </g>   
    </symbol>
    <symbol id="align-right-left-16" viewBox="0 0 16 16">
       <g id="Layer_1"> <path d="M13,5H4C3.724,5,3.5,4.776,3.5,4.5S3.724,4,4,4h9c0.276,0,0.5,0.224,0.5,0.5S13.276,5,13,5z"/> <path d="M13,7H7C6.724,7,6.5,6.776,6.5,6.5S6.724,6,7,6h6c0.276,0,0.5,0.224,0.5,0.5S13.276,7,13,7z"/> <path d="M13,9H4C3.724,9,3.5,8.776,3.5,8.5S3.724,8,4,8h9c0.276,0,0.5,0.224,0.5,0.5S13.276,9,13,9z"/> <path d="M13,13H4c-0.276,0-0.5-0.224-0.5-0.5S3.724,12,4,12h9c0.276,0,0.5,0.224,0.5,0.5S13.276,13,13,13z"/> <path d="M13,11H7c-0.276,0-0.5-0.224-0.5-0.5S6.724,10,7,10h6c0.276,0,0.5,0.224,0.5,0.5S13.276,11,13,11z"/> </g>   
    </symbol>
    <symbol id="archive-16" viewBox="0 0 16 16">
       <g id="Layer_1"> <path d="M15.5,6h-15C0.224,6,0,5.776,0,5.5v-3C0,2.224,0.224,2,0.5,2h15C15.776,2,16,2.224,16,2.5v3C16,5.776,15.776,6,15.5,6z
		 M1,5h14V3H1V5z"/> <path d="M14.5,14h-13C1.224,14,1,13.776,1,13.5v-8C1,5.224,1.224,5,1.5,5h13C14.776,5,15,5.224,15,5.5v8
		C15,13.776,14.776,14,14.5,14z M2,13h12V6H2V13z"/> <path d="M10.5,10h-5C5.224,10,5,9.776,5,9.5v-2C5,7.224,5.224,7,5.5,7h5C10.776,7,11,7.224,11,7.5v2C11,9.776,10.776,10,10.5,10z
		 M6,9h4V8H6V9z"/> </g>   
    </symbol>
    <symbol id="arrow-left-16" viewBox="0 0 16 16">
       <g id="Layer_1"> <g id="XMLID_153_"> <path d="M10.698,15.298c-0.127,0-0.255-0.048-0.353-0.146L3.471,8.316C3.275,8.122,3.274,7.805,3.469,7.609l6.836-6.874
			c0.195-0.195,0.511-0.197,0.707-0.002s0.197,0.511,0.002,0.707L4.531,7.96l6.52,6.484c0.196,0.195,0.197,0.511,0.002,0.707
			C10.955,15.249,10.826,15.298,10.698,15.298z"/> </g> </g>   
    </symbol>
    <symbol id="arrow-ns-16" viewBox="0 0 16 16">
       <g id="Layer_1"> <path d="M7.5,15.5C7.224,15.5,7,15.276,7,15V1c0-0.276,0.224-0.5,0.5-0.5S8,0.724,8,1v14C8,15.276,7.776,15.5,7.5,15.5z"/> <path d="M10.597,4.611c-0.128,0-0.256-0.049-0.354-0.146L7.5,1.722L4.757,4.465c-0.195,0.195-0.512,0.195-0.707,0
		s-0.195-0.512,0-0.707l3.097-3.097c0.195-0.195,0.512-0.195,0.707,0l3.097,3.097c0.195,0.195,0.195,0.512,0,0.707
		C10.853,4.562,10.725,4.611,10.597,4.611z"/> <path d="M7.5,15.5c-0.128,0-0.256-0.049-0.354-0.146L4.05,12.257c-0.195-0.195-0.195-0.512,0-0.707s0.512-0.195,0.707,0L7.5,14.293
		l2.743-2.743c0.195-0.195,0.512-0.195,0.707,0s0.195,0.512,0,0.707l-3.097,3.097C7.756,15.451,7.628,15.5,7.5,15.5z"/> </g>   
    </symbol>
    <symbol id="arrow-right-16" viewBox="0 0 16 16">
       <g id="Layer_1"> <g id="XMLID_1_"> <path d="M4.824,15.298c-0.129,0-0.257-0.049-0.354-0.147c-0.194-0.196-0.194-0.512,0.002-0.707l6.52-6.484L4.507,1.44
			C4.312,1.245,4.312,0.928,4.509,0.733C4.705,0.539,5.021,0.54,5.216,0.735l6.837,6.874c0.094,0.094,0.146,0.221,0.146,0.354
			c0,0.132-0.054,0.26-0.147,0.353l-6.874,6.836C5.079,15.25,4.952,15.298,4.824,15.298z"/> </g> </g>   
    </symbol>
    <symbol id="arrow-right-stem-16" viewBox="0 0 16 16">
       <g id="Layer_1"> <path d="M13.979,8H2C1.724,8,1.5,7.776,1.5,7.5S1.724,7,2,7h11.979c0.276,0,0.5,0.224,0.5,0.5S14.255,8,13.979,8z"/> <path d="M10.31,11.627c-0.141,0-0.281-0.06-0.38-0.175c-0.18-0.21-0.155-0.526,0.055-0.705l3.924-3.353L9.984,4.042
		C9.774,3.863,9.75,3.547,9.93,3.337c0.18-0.209,0.495-0.234,0.705-0.055l4.368,3.732c0.11,0.095,0.175,0.233,0.175,0.38
		s-0.064,0.285-0.175,0.38l-4.368,3.732C10.54,11.588,10.425,11.627,10.31,11.627z"/> </g>   
    </symbol>
    <symbol id="audiences-16" viewBox="0 0 16 16">
       <g id="Layer_1"> <g id="XMLID_810_"> <path d="M8.105,14.9c-2.404,0-4.135-0.099-4.519-0.258c-0.693-0.287-0.311-1.944-0.306-1.96c0.104-0.374,0.478-0.493,1.477-0.812
			c0.432-0.138,1.153-0.368,1.303-0.49c0.108-0.135,0.268-0.877,0.322-1.545C6.404,9.56,6.655,9.363,6.921,9.377
			c0.275,0.022,0.48,0.263,0.458,0.539c-0.04,0.504-0.181,1.726-0.609,2.169c-0.257,0.265-0.816,0.453-1.707,0.738
			c-0.269,0.085-0.645,0.206-0.845,0.288c-0.021,0.182-0.037,0.452-0.034,0.643C4.641,13.811,5.819,13.9,8.105,13.9
			c2.625,0,3.579-0.081,3.921-0.131c0.014-0.191,0.011-0.469-0.006-0.646c-0.201-0.079-0.576-0.196-0.866-0.287
			c-1.061-0.332-1.588-0.516-1.831-0.771c-0.404-0.426-0.485-1.74-0.497-2.379C8.821,9.411,9.041,9,9.316,9c0.004,0,0.007,0,0.01,0
			c0.271,0,0.495,0.396,0.5,0.669c0.013,0.653,0.122,1.476,0.23,1.629c0.138,0.103,0.926,0.393,1.396,0.54
			c0.948,0.296,1.256,0.424,1.416,0.654c0.188,0.269,0.276,1.656-0.068,2.01C12.618,14.691,12.427,14.9,8.105,14.9z"/> <path d="M8.105,10.906c-1.118,0-2.217-1.018-2.938-2.724C4.952,7.674,4.823,6.57,4.823,5.229c0-2.056,1.473-3.729,3.282-3.729
			c1.84,0,3.281,1.613,3.281,3.672c0,0.669-0.034,2.304-0.348,3.011C10.272,9.914,9.203,10.906,8.105,10.906z M8.105,2.5
			c-1.259,0-2.282,1.224-2.282,2.729c0,1.339,0.133,2.253,0.265,2.564c0.66,1.559,1.475,2.114,2.018,2.114
			c0.521,0,1.324-0.559,2.02-2.128c0.126-0.284,0.262-1.221,0.262-2.605C10.387,3.674,9.385,2.5,8.105,2.5z"/> <g id="XMLID_844_"> <path d="M2.816,12.92c-0.462,0-1.479-0.13-1.806-0.173c-0.04-0.005-0.079-0.015-0.116-0.03c-0.666-0.26-0.316-1.624-0.312-1.637
				c0.101-0.346,0.412-0.44,1.246-0.694c0.329-0.1,0.881-0.268,1.006-0.355c0.055-0.088,0.168-0.616,0.207-1.076
				c0.023-0.275,0.268-0.481,0.54-0.456c0.275,0.023,0.479,0.265,0.456,0.54C3.996,9.531,3.873,10.41,3.516,10.76
				c-0.209,0.206-0.605,0.342-1.396,0.583c-0.186,0.056-0.439,0.133-0.602,0.192c-0.008,0.082-0.015,0.178-0.017,0.266
				c0.596,0.073,1.204,0.134,1.351,0.119c0.284-0.028,0.519,0.176,0.545,0.452c0.025,0.275-0.177,0.519-0.451,0.544
				C2.909,12.918,2.866,12.92,2.816,12.92z"/> <path d="M4.511,9.897c-0.927,0-1.833-0.794-2.424-2.125C1.906,7.365,1.802,6.53,1.802,5.482c0-1.622,1.215-2.941,2.709-2.941
				c0.276,0,0.5,0.224,0.5,0.5s-0.224,0.5-0.5,0.5c-0.942,0-1.709,0.871-1.709,1.941c0,1.136,0.13,1.729,0.199,1.883
				c0.502,1.131,1.127,1.532,1.51,1.532c0.276,0,0.5,0.224,0.5,0.5S4.787,9.897,4.511,9.897z"/> </g> <g id="XMLID_811_"> <path d="M13.619,12.92c-0.046,0-0.087-0.001-0.124-0.005c-0.274-0.026-0.477-0.27-0.451-0.544
				c0.026-0.275,0.263-0.478,0.545-0.452c0.112,0.011,0.518-0.037,0.911-0.102c-0.002-0.092-0.009-0.195-0.018-0.283
				c-0.162-0.059-0.416-0.136-0.602-0.192c-0.791-0.241-1.188-0.376-1.396-0.583c-0.357-0.351-0.48-1.229-0.521-1.722
				c-0.023-0.275,0.181-0.517,0.456-0.54c0.249-0.033,0.517,0.18,0.54,0.456c0.039,0.461,0.153,0.988,0.238,1.106
				c0.094,0.058,0.646,0.225,0.975,0.325c0.834,0.253,1.146,0.348,1.246,0.694c0.004,0.014,0.354,1.377-0.312,1.637
				C14.789,12.785,14.038,12.92,13.619,12.92z"/> <path d="M11.489,9.897c-0.276,0-0.5-0.224-0.5-0.5s0.224-0.5,0.5-0.5c0.383,0,1.008-0.401,1.51-1.532
				c0.069-0.155,0.199-0.747,0.199-1.883c0-1.07-0.767-1.941-1.709-1.941c-0.276,0-0.5-0.224-0.5-0.5s0.224-0.5,0.5-0.5
				c1.494,0,2.709,1.319,2.709,2.941c0,1.048-0.104,1.883-0.285,2.29C13.322,9.103,12.416,9.897,11.489,9.897z"/> </g> </g> </g>   
    </symbol>
    <symbol id="badge-16" viewBox="0 0 16 16">
       <g id="Layer_1"> <path d="M7.5,16C4.467,16,2,13.532,2,10.5S4.467,5,7.5,5S13,7.468,13,10.5S10.533,16,7.5,16z M7.5,6C5.019,6,3,8.019,3,10.5
		S5.019,15,7.5,15s4.5-2.019,4.5-4.5S9.981,6,7.5,6z"/> <path d="M9.5,14c-0.096,0-0.192-0.027-0.276-0.083L7.5,12.775l-1.724,1.142c-0.173,0.115-0.399,0.111-0.568-0.012
		c-0.168-0.121-0.245-0.335-0.19-0.535l0.584-2.165L4.177,9.999c-0.16-0.136-0.218-0.357-0.146-0.554
		C4.103,9.248,4.29,9.117,4.5,9.117h1.683l0.865-1.831c0.165-0.35,0.739-0.35,0.904,0l0.865,1.831H10.5
		c0.21,0,0.397,0.131,0.469,0.328c0.072,0.196,0.014,0.418-0.146,0.554l-1.424,1.206l0.584,2.165c0.054,0.2-0.022,0.414-0.19,0.535
		C9.705,13.969,9.603,14,9.5,14z M7.5,11.676c0.096,0,0.192,0.027,0.276,0.083l0.896,0.594l-0.322-1.193
		c-0.05-0.187,0.012-0.386,0.16-0.512l0.626-0.53H8.5c-0.193,0-0.37-0.111-0.452-0.286L7.5,8.671l-0.548,1.16
		C6.87,10.006,6.693,10.117,6.5,10.117H5.863l0.626,0.53c0.148,0.126,0.21,0.325,0.16,0.512l-0.322,1.193l0.896-0.594
		C7.308,11.703,7.404,11.676,7.5,11.676z"/> <path d="M3.528,5C3.333,5,3.147,4.885,3.067,4.693L2.039,2.24C2.013,2.179,2,2.113,2,2.047V0.5C2,0.224,2.224,0,2.5,0h4
		C6.776,0,7,0.224,7,0.5S6.776,1,6.5,1H3v0.946l0.989,2.36c0.107,0.255-0.013,0.548-0.268,0.654C3.658,4.987,3.592,5,3.528,5z"/> <path d="M11.564,5c-0.059,0-0.12-0.011-0.178-0.033c-0.258-0.098-0.387-0.387-0.289-0.645L12,1.955V1H6.5C6.224,1,6,0.776,6,0.5
		S6.224,0,6.5,0h6C12.776,0,13,0.224,13,0.5v1.547c0,0.061-0.011,0.121-0.033,0.178l-0.936,2.453C11.956,4.878,11.766,5,11.564,5z"/> <path d="M4.5,4.625c-0.276,0-0.5-0.224-0.5-0.5v-3c0-0.276,0.224-0.5,0.5-0.5S5,0.849,5,1.125v3C5,4.401,4.776,4.625,4.5,4.625z"/> <path d="M8.5,4.625c-0.276,0-0.5-0.224-0.5-0.5v-3c0-0.276,0.224-0.5,0.5-0.5S9,0.849,9,1.125v3C9,4.401,8.776,4.625,8.5,4.625z"/> <path d="M6.5,4.625c-0.276,0-0.5-0.224-0.5-0.5v-3c0-0.276,0.224-0.5,0.5-0.5S7,0.849,7,1.125v3C7,4.401,6.776,4.625,6.5,4.625z"/> <path d="M10.5,4.625c-0.276,0-0.5-0.224-0.5-0.5v-3c0-0.276,0.224-0.5,0.5-0.5s0.5,0.224,0.5,0.5v3
		C11,4.401,10.776,4.625,10.5,4.625z"/> </g>   
    </symbol>
    <symbol id="ban-16" viewBox="0 0 16 16">
       <g id="Layer_1"> <g> <path d="M8,16c-4.411,0-8-3.589-8-8s3.589-8,8-8s8,3.589,8,8S12.411,16,8,16z M8,1C4.141,1,1,4.141,1,8s3.141,7,7,7s7-3.141,7-7
			S11.859,1,8,1z"/> <path d="M3.864,11.31c-0.016,0-0.031-0.001-0.047-0.002c-0.148-0.015-0.282-0.094-0.366-0.217C2.829,10.177,2.5,9.107,2.5,8
			c0-3.032,2.468-5.5,5.5-5.5c1.107,0,2.177,0.329,3.091,0.951c0.123,0.084,0.202,0.218,0.217,0.366
			c0.014,0.148-0.039,0.295-0.145,0.4l-6.945,6.945C4.124,11.257,3.996,11.31,3.864,11.31z M8,3.5C5.519,3.5,3.5,5.519,3.5,8
			c0,0.7,0.16,1.381,0.468,1.999l6.031-6.031C9.381,3.66,8.7,3.5,8,3.5z"/> <path d="M8,13.5c-1.107,0-2.177-0.329-3.091-0.951c-0.123-0.084-0.202-0.218-0.217-0.366c-0.014-0.148,0.039-0.295,0.145-0.4
			l6.945-6.945c0.105-0.105,0.251-0.154,0.4-0.145c0.148,0.015,0.282,0.094,0.366,0.217C13.171,5.823,13.5,6.893,13.5,8
			C13.5,11.032,11.032,13.5,8,13.5z M6.001,12.032C6.619,12.34,7.3,12.5,8,12.5c2.481,0,4.5-2.019,4.5-4.5
			c0-0.7-0.16-1.381-0.468-1.999L6.001,12.032z"/> </g> </g>   
    </symbol>
    <symbol id="bell-16" viewBox="0 0 16 16">
       <g id="Layer_1"> <path d="M15.5,13h-15C0.224,13,0,12.776,0,12.5S0.224,12,0.5,12C1.033,12,2,10.369,2,9.471V7c0-2.685,1.599-3.838,3.4-4.632
		C5.548,0.997,6.591,0,7.941,0c1.372,0,2.469,1.016,2.627,2.368C12.386,3.168,14,4.325,14,7v2.471C14,10.369,14.967,12,15.5,12
		c0.276,0,0.5,0.224,0.5,0.5S15.776,13,15.5,13z M2.031,12h11.938C13.385,11.213,13,10.142,13,9.471V7
		c0-2.122-1.138-3.012-3.104-3.832C9.709,3.09,9.588,2.908,9.588,2.706C9.588,1.749,8.865,1,7.941,1
		C7.038,1,6.382,1.718,6.382,2.706c0,0.202-0.122,0.384-0.308,0.462C4.127,3.979,3,4.866,3,7v2.471C3,10.142,2.615,11.213,2.031,12z
		"/> <path d="M8,15.765c-1.524,0-2.765-1.24-2.765-2.765c0-0.276,0.224-0.5,0.5-0.5s0.5,0.224,0.5,0.5c0,0.973,0.792,1.765,1.765,1.765
		S9.765,13.973,9.765,13c0-0.276,0.224-0.5,0.5-0.5s0.5,0.224,0.5,0.5C10.765,14.524,9.524,15.765,8,15.765z"/> </g>   
    </symbol>
    <symbol id="calendar-16" viewBox="0 0 16 16">
       <g id="Layer_1"> <path d="M15.5,16h-15C0.224,16,0,15.776,0,15.5v-14C0,1.224,0.224,1,0.5,1H3c0.276,0,0.5,0.224,0.5,0.5S3.276,2,3,2H1v13h14V2h-1
		c-0.276,0-0.5-0.224-0.5-0.5S13.724,1,14,1h1.5C15.776,1,16,1.224,16,1.5v14C16,15.776,15.776,16,15.5,16z"/> <path d="M5.5,3h-2C3.224,3,3,2.776,3,2.5v-2C3,0.224,3.224,0,3.5,0h2C5.776,0,6,0.224,6,0.5v2C6,2.776,5.776,3,5.5,3z M4,2h1V1H4V2
		z"/> <path d="M13.5,3h-2C11.224,3,11,2.776,11,2.5v-2C11,0.224,11.224,0,11.5,0h2C13.776,0,14,0.224,14,0.5v2C14,2.776,13.776,3,13.5,3z
		 M12,2h1V1h-1V2z"/> <path d="M11,2H6C5.724,2,5.5,1.776,5.5,1.5S5.724,1,6,1h5c0.276,0,0.5,0.224,0.5,0.5S11.276,2,11,2z"/> <rect y="4" width="15" height="1"/> <g> <path d="M6.5,12.5C6.224,12.5,6,12.276,6,12V8.685L5.511,9.12C5.304,9.302,4.987,9.284,4.805,9.078
			C4.621,8.871,4.641,8.555,4.847,8.372l1.321-1.173c0.147-0.13,0.358-0.164,0.537-0.082C6.885,7.197,7,7.375,7,7.572V12
			C7,12.276,6.776,12.5,6.5,12.5z"/> <path d="M8,13H5c-0.276,0-0.5-0.224-0.5-0.5S4.724,12,5,12h3c0.276,0,0.5,0.224,0.5,0.5S8.276,13,8,13z"/> </g> <g> <path d="M9.62,13.205c-0.054,0-0.108-0.009-0.162-0.027c-0.261-0.089-0.4-0.374-0.311-0.635L10.701,8H9c0,0.276-0.224,0.5-0.5,0.5
			S8,8.276,8,8V7.5C8,7.224,8.224,7,8.5,7h2.9c0.161,0,0.312,0.078,0.407,0.209c0.094,0.131,0.118,0.3,0.065,0.452l-1.78,5.205
			C10.022,13.075,9.828,13.205,9.62,13.205z"/> </g> </g>   
    </symbol>
    <symbol id="campaigns-16" viewBox="0 0 16 16">
       <g id="Layer_1"> <path d="M0.5,10.11c-0.276,0-0.5-0.224-0.5-0.5V6.358c0-0.276,0.224-0.5,0.5-0.5S1,6.082,1,6.358V9.61
		C1,9.887,0.776,10.11,0.5,10.11z"/> <path d="M15.5,15c-0.276,0-0.5-0.224-0.5-0.5V1c0-0.276,0.224-0.5,0.5-0.5S16,0.724,16,1v13.5C16,14.776,15.776,15,15.5,15z"/> <path d="M15.5,14.257c-0.051,0-0.102-0.008-0.151-0.023l-15-4.774C0.141,9.393,0,9.2,0,8.982V6.937c0-0.218,0.141-0.41,0.349-0.477
		l15-4.773c0.152-0.047,0.317-0.021,0.446,0.073S16,2.004,16,2.163v11.594c0,0.159-0.076,0.31-0.205,0.403
		C15.708,14.224,15.604,14.257,15.5,14.257z M1,8.617l14,4.456V2.847L1,7.302V8.617z"/> <path d="M6.55,14.093c-1.62,0-2.55-0.841-2.55-2.306V10.61c0-0.276,0.224-0.5,0.5-0.5S5,10.334,5,10.61v1.177
		c0,0.607,0.176,1.306,1.55,1.306c1.362,0,1.55-0.603,1.55-1.254c0-0.276,0.224-0.5,0.5-0.5s0.5,0.224,0.5,0.5
		C9.1,12.681,8.769,14.093,6.55,14.093z"/> </g>   
    </symbol>
    <symbol id="check-16" viewBox="0 0 16 16">
       <g id="Layer_1"> <g id="XMLID_32_"> <path d="M5.487,14.666c-0.132,0-0.259-0.052-0.354-0.146l-3.643-3.643c-0.195-0.195-0.195-0.512,0-0.707s0.512-0.195,0.707,0
			l3.227,3.226l8.904-12.412c0.161-0.225,0.473-0.277,0.698-0.115c0.224,0.161,0.276,0.473,0.115,0.698l-9.247,12.89
			c-0.085,0.119-0.219,0.195-0.366,0.207C5.515,14.666,5.501,14.666,5.487,14.666z"/> </g> </g>   
    </symbol>
    <symbol id="clipboard-16" viewBox="0 0 16 16">
       <g id="Layer_1"> <path d="M11.5,14h-7C4.224,14,4,13.776,4,13.5v-9C4,4.224,4.224,4,4.5,4H5v9h6V4h0.5C11.776,4,12,4.224,12,4.5v9
		C12,13.776,11.776,14,11.5,14z"/> <path d="M13.5,16h-11C2.224,16,2,15.776,2,15.5v-12C2,3.224,2.224,3,2.5,3H6v1H3v11h10V4h-3V3h3.5C13.776,3,14,3.224,14,3.5v12
		C14,15.776,13.776,16,13.5,16z"/> <path d="M10.5,5h-5C5.224,5,5,4.776,5,4.5v-2C5,2.224,5.224,2,5.5,2h0.42c0.241-0.966,1.181-1.412,2.062-1.412
		c1.017,0,1.729,0.54,1.921,1.412H10.5C10.776,2,11,2.224,11,2.5v2C11,4.776,10.776,5,10.5,5z M6,4h4V3H9.456
		c-0.276,0-0.5-0.224-0.5-0.5c0-0.754-0.529-0.912-0.974-0.912c-0.188,0-1.122,0.044-1.122,0.912c0,0.276-0.224,0.5-0.5,0.5H6V4z"/> </g>   
    </symbol>
    <symbol id="close-16" viewBox="0 0 16 16">
       <g id="Layer_1"> <g id="XMLID_4_"> <path d="M13.009,13.508c-0.128,0-0.256-0.049-0.354-0.146L2.638,3.345c-0.195-0.195-0.195-0.512,0-0.707s0.512-0.195,0.707,0
			l10.018,10.017c0.195,0.195,0.195,0.512,0,0.707C13.265,13.459,13.137,13.508,13.009,13.508z"/> <path d="M2.991,13.508c-0.128,0-0.256-0.049-0.354-0.146c-0.195-0.195-0.195-0.512,0-0.707L12.655,2.638
			c0.195-0.195,0.512-0.195,0.707,0s0.195,0.512,0,0.707L3.345,13.362C3.247,13.459,3.119,13.508,2.991,13.508z"/> </g> </g>   
    </symbol>
    <symbol id="code-16" viewBox="0 0 16 16">
       <g id="Layer_1"> <path d="M5.042,9.137c-0.128,0-0.256-0.049-0.354-0.146c-0.195-0.195-0.195-0.512,0-0.707l1.268-1.269L4.688,5.746
		c-0.195-0.195-0.195-0.512,0-0.707c0.195-0.195,0.512-0.195,0.707,0l1.621,1.622c0.195,0.195,0.195,0.512,0,0.707L5.396,8.99
		C5.298,9.088,5.17,9.137,5.042,9.137z"/> <path d="M11,8H9C8.724,8,8.5,7.776,8.5,7.5S8.724,7,9,7h2c0.276,0,0.5,0.224,0.5,0.5S11.276,8,11,8z"/> <path d="M15.5,15h-15C0.224,15,0,14.776,0,14.5v-13C0,1.224,0.224,1,0.5,1h15C15.776,1,16,1.224,16,1.5v13
		C16,14.776,15.776,15,15.5,15z M1,14h14V2H1V14z"/> <path d="M13.5,13h-11C2.224,13,2,12.776,2,12.5v-9C2,3.224,2.224,3,2.5,3h11C13.776,3,14,3.224,14,3.5v9
		C14,12.776,13.776,13,13.5,13z M3,12h10V4H3V12z"/> </g>   
    </symbol>
    <symbol id="collaborators-16" viewBox="0 0 16 16">
       <g id="Layer_1"> <path d="M3.951,6.385c-1.518,0-2.753-1.235-2.753-2.753s1.235-2.753,2.753-2.753s2.753,1.235,2.753,2.753S5.469,6.385,3.951,6.385z
		 M3.951,1.878c-0.967,0-1.753,0.786-1.753,1.753s0.786,1.753,1.753,1.753s1.753-0.787,1.753-1.753S4.918,1.878,3.951,1.878z"/> <path d="M5.5,14h-3C2.224,14,2,13.776,2,13.5v-2.64C1.127,10.192,1,8.306,1,6.5C1,6.224,1.224,6,1.5,6h5.1
		c0.276,0,0.5,0.224,0.5,0.5c0,1.655-0.2,3.665-1.1,4.358V13.5C6,13.776,5.776,14,5.5,14z M3,13h2v-2.43
		c0-0.212,0.135-0.402,0.335-0.472C5.677,9.979,6.037,8.864,6.093,7H2.005c0.051,2.669,0.513,3.046,0.66,3.098
		C2.865,10.168,3,10.357,3,10.57V13z"/> <path d="M11.951,6.385c-1.518,0-2.753-1.235-2.753-2.753s1.235-2.753,2.753-2.753s2.753,1.235,2.753,2.753
		S13.469,6.385,11.951,6.385z M11.951,1.878c-0.967,0-1.753,0.786-1.753,1.753s0.786,1.753,1.753,1.753s1.753-0.787,1.753-1.753
		S12.918,1.878,11.951,1.878z"/> <path d="M13.5,14h-3c-0.276,0-0.5-0.224-0.5-0.5v-2.64C9.127,10.192,9,8.306,9,6.5C9,6.224,9.224,6,9.5,6h5.1
		c0.276,0,0.5,0.224,0.5,0.5c0,1.655-0.2,3.665-1.1,4.358V13.5C14,13.776,13.776,14,13.5,14z M11,13h2v-2.43
		c0-0.212,0.135-0.402,0.335-0.472C13.677,9.979,14.037,8.864,14.093,7h-4.088c0.051,2.669,0.513,3.046,0.66,3.098
		c0.2,0.07,0.335,0.26,0.335,0.472V13z"/> </g>   
    </symbol>
    <symbol id="collapse-16" viewBox="0 0 16 16">
       <g id="Layer_1"> <path d="M10.5,6c-0.128,0-0.256-0.049-0.354-0.146c-0.195-0.195-0.195-0.512,0-0.707l5-5c0.195-0.195,0.512-0.195,0.707,0
		s0.195,0.512,0,0.707l-5,5C10.756,5.951,10.628,6,10.5,6z"/> <path d="M12.5,7h-3C9.224,7,9,6.776,9,6.5v-3C9,3.224,9.224,3,9.5,3S10,3.224,10,3.5V6h2.5C12.776,6,13,6.224,13,6.5
		S12.776,7,12.5,7z"/> <path d="M0.5,16c-0.128,0-0.256-0.049-0.354-0.146c-0.195-0.195-0.195-0.512,0-0.707l5-5c0.195-0.195,0.512-0.195,0.707,0
		s0.195,0.512,0,0.707l-5,5C0.756,15.951,0.628,16,0.5,16z"/> <path d="M6.5,13C6.224,13,6,12.776,6,12.5V10H3.5C3.224,10,3,9.776,3,9.5S3.224,9,3.5,9h3C6.776,9,7,9.224,7,9.5v3
		C7,12.776,6.776,13,6.5,13z"/> <path d="M15.5,16c-0.128,0-0.256-0.049-0.354-0.146l-5-5c-0.195-0.195-0.195-0.512,0-0.707s0.512-0.195,0.707,0l5,5
		c0.195,0.195,0.195,0.512,0,0.707C15.756,15.951,15.628,16,15.5,16z"/> <path d="M9.5,13C9.224,13,9,12.776,9,12.5v-3C9,9.224,9.224,9,9.5,9h3C12.776,9,13,9.224,13,9.5S12.776,10,12.5,10H10v2.5
		C10,12.776,9.776,13,9.5,13z"/> <path d="M5.5,6C5.372,6,5.244,5.951,5.146,5.854l-5-5c-0.195-0.195-0.195-0.512,0-0.707s0.512-0.195,0.707,0l5,5
		c0.195,0.195,0.195,0.512,0,0.707C5.756,5.951,5.628,6,5.5,6z"/> <path d="M6.5,7h-3C3.224,7,3,6.776,3,6.5S3.224,6,3.5,6H6V3.5C6,3.224,6.224,3,6.5,3S7,3.224,7,3.5v3C7,6.776,6.776,7,6.5,7z"/> </g>   
    </symbol>
    <symbol id="desktop-16" viewBox="0 0 16 16">
       <g id="Layer_1"> <path d="M13.625,12.956H2.375C1.065,12.956,0,11.864,0,10.521V3.409C0,2.081,1.065,1,2.375,1h11.25C14.935,1,16,2.081,16,3.409
		v7.112C16,11.864,14.935,12.956,13.625,12.956z M2.375,2C1.617,2,1,2.632,1,3.409v7.112c0,0.791,0.617,1.435,1.375,1.435h11.25
		c0.758,0,1.375-0.644,1.375-1.435V3.409C15,2.632,14.383,2,13.625,2H2.375z"/> <path d="M15.5,10h-15C0.224,10,0,9.776,0,9.5S0.224,9,0.5,9h15C15.776,9,16,9.224,16,9.5S15.776,10,15.5,10z"/> <path d="M11.125,15.065h-6.25c-0.276,0-0.5-0.224-0.5-0.5s0.224-0.5,0.5-0.5h6.25c0.276,0,0.5,0.224,0.5,0.5
		S11.401,15.065,11.125,15.065z"/> <path d="M8,15.065c-0.276,0-0.5-0.224-0.5-0.5v-2.109c0-0.276,0.224-0.5,0.5-0.5s0.5,0.224,0.5,0.5v2.109
		C8.5,14.842,8.276,15.065,8,15.065z"/> </g>   
    </symbol>
    <symbol id="dimensions-16" viewBox="0 0 16 16">
       <g id="Layer_1"> <g> <path d="M11.5,16h-11C0.224,16,0,15.776,0,15.5v-11C0,4.224,0.224,4,0.5,4h11C11.776,4,12,4.224,12,4.5v11
			C12,15.776,11.776,16,11.5,16z M1,15h10V5H1V15z"/> <path d="M15.5,11h-11C4.224,11,4,10.776,4,10.5v-10C4,0.224,4.224,0,4.5,0h11C15.776,0,16,0.224,16,0.5v10
			C16,10.776,15.776,11,15.5,11z M5,10h10V1H5V10z"/> <rect x="2.033" y="9.746" transform="matrix(0.7363 0.6767 -0.6767 0.7363 9.2961 1.6487)" width="1" height="6.009"/> <rect x="12.988" y="9.779" transform="matrix(0.7844 0.6203 -0.6203 0.7844 10.9625 -5.5666)" width="1" height="6.412"/> <path d="M0.5,4.979c-0.128,0-0.257-0.049-0.354-0.147C-0.049,4.636-0.048,4.32,0.147,4.125l4-3.979
			C4.343-0.05,4.659-0.048,4.854,0.147C5.049,0.343,5.048,0.66,4.853,0.854l-4,3.979C0.755,4.931,0.627,4.979,0.5,4.979z"/> <rect x="12.775" y="0.278" transform="matrix(0.711 0.7032 -0.7032 0.711 5.7581 -8.5448)" width="1" height="4.91"/> </g> </g>   
    </symbol>
    <symbol id="duplicate-16" viewBox="0 0 16 16">
       <g id="Layer_1"> <g id="XMLID_747_"> <path d="M15.5,14h-13C2.224,14,2,13.776,2,13.5v-13C2,0.224,2.224,0,2.5,0h13C15.776,0,16,0.224,16,0.5v13
			C16,13.776,15.776,14,15.5,14z M3,13h12V1H3V13z"/> <path d="M10.5,12h-3C7.224,12,7,11.776,7,11.5V9H4.5C4.224,9,4,8.776,4,8.5v-3C4,5.224,4.224,5,4.5,5H7V2.5C7,2.224,7.224,2,7.5,2
			h3C10.776,2,11,2.224,11,2.5V5h2.5C13.776,5,14,5.224,14,5.5v3C14,8.776,13.776,9,13.5,9H11v2.5C11,11.776,10.776,12,10.5,12z
			 M8,11h2V8.5C10,8.224,10.224,8,10.5,8H13V6h-2.5C10.224,6,10,5.776,10,5.5V3H8v2.5C8,5.776,7.776,6,7.5,6H5v2h2.5
			C7.776,8,8,8.224,8,8.5V11z"/> <path d="M12.5,16h-12C0.224,16,0,15.776,0,15.5v-12C0,3.224,0.224,3,0.5,3H1c0.276,0,0.5,0.224,0.5,0.5S1.276,4,1,4v11h11
			c0-0.276,0.224-0.5,0.5-0.5S13,14.724,13,15v0.5C13,15.776,12.776,16,12.5,16z"/> </g> </g>   
    </symbol>
    <symbol id="editor-switch-16" viewBox="0 0 16 16">
       <g id="Layer_1"> <path d="M8.5,9h-7C1.224,9,1,8.776,1,8.5v-7C1,1.224,1.224,1,1.5,1h7C8.776,1,9,1.224,9,1.5v7C9,8.776,8.776,9,8.5,9z M2,8h6V2H2V8
		z"/> <path d="M14.5,15h-7C7.224,15,7,14.776,7,14.5V11c0-0.276,0.224-0.5,0.5-0.5S8,10.724,8,11v3h6V8h-3c-0.276,0-0.5-0.224-0.5-0.5
		S10.724,7,11,7h3.5C14.776,7,15,7.224,15,7.5v7C15,14.776,14.776,15,14.5,15z"/> <path d="M4.348,15.196c-0.128,0-0.256-0.049-0.354-0.146c-0.195-0.195-0.195-0.512,0-0.707l0.864-0.864l-0.864-0.864
		c-0.195-0.195-0.195-0.512,0-0.707s0.512-0.195,0.707,0l1.218,1.217c0.094,0.094,0.146,0.221,0.146,0.354s-0.053,0.26-0.146,0.354
		l-1.218,1.218C4.604,15.147,4.476,15.196,4.348,15.196z"/> <path d="M5.565,13.978H4.956c-1.953,0-3.543-1.589-3.543-3.543c0-0.276,0.224-0.5,0.5-0.5s0.5,0.224,0.5,0.5
		c0,1.402,1.141,2.543,2.543,2.543h0.609c0.276,0,0.5,0.224,0.5,0.5S5.842,13.978,5.565,13.978z"/> <path d="M11.652,4.239c-0.128,0-0.256-0.049-0.354-0.146l-1.218-1.217C9.987,2.782,9.935,2.655,9.935,2.522s0.053-0.26,0.146-0.354
		l1.218-1.218c0.195-0.195,0.512-0.195,0.707,0s0.195,0.512,0,0.707l-0.864,0.864l0.864,0.864c0.195,0.195,0.195,0.512,0,0.707
		C11.908,4.19,11.78,4.239,11.652,4.239z"/> <path d="M14.087,6.065c-0.276,0-0.5-0.224-0.5-0.5c0-1.402-1.141-2.543-2.543-2.543h-0.609c-0.276,0-0.5-0.224-0.5-0.5
		s0.224-0.5,0.5-0.5h0.609c1.953,0,3.543,1.589,3.543,3.543C14.587,5.842,14.363,6.065,14.087,6.065z"/> </g>   
    </symbol>
    <symbol id="ellipsis-16" viewBox="0 0 16 16">
       <g id="Layer_1"> <circle cx="2" cy="8" r="1.875"/> <circle cx="8" cy="8" r="1.875"/> <circle cx="14" cy="8" r="1.875"/> </g>   
    </symbol>
    <symbol id="events-16" viewBox="0 0 16 16">
       <g id="Layer_1"> <path d="M15.031,14H0.969C0.435,14,0,13.565,0,13.031V1.969C0,1.435,0.435,1,0.969,1h14.062C15.565,1,16,1.435,16,1.969v11.062
		C16,13.565,15.565,14,15.031,14z M15,1.969L0.969,2L1,13.031L15,13V1.969z"/> <path d="M15,4H1C0.724,4,0.5,3.776,0.5,3.5S0.724,3,1,3h14c0.276,0,0.5,0.224,0.5,0.5S15.276,4,15,4z"/> <path d="M10.665,12c-0.008,0-0.017,0-0.025,0c-0.202,0-0.377-0.268-0.445-0.458L8.66,7.178l-2.005,3.58
		c-0.096,0.173-0.276,0.257-0.483,0.239c-0.197-0.019-0.365-0.16-0.428-0.348L4.796,7.801L4.093,8.817C4,8.956,3.844,9,3.677,9H0V8
		h3.409l1.122-1.647c0.105-0.158,0.29-0.235,0.482-0.199C5.203,6.178,5.361,6.32,5.422,6.5l0.911,2.741l1.99-3.582
		C8.417,5.489,8.604,5.391,8.8,5.406c0.196,0.016,0.364,0.146,0.43,0.331l1.501,4.206l0.753-1.62C11.567,8.149,11.743,8,11.936,8H15
		v1h-2.749l-1.135,2.55C11.033,11.725,10.857,12,10.665,12z"/> </g>   
    </symbol>
    <symbol id="exclamation-16" viewBox="0 0 16 16">
       <g id="Layer_1"> <path d="M8,16c-4.411,0-8-3.589-8-8s3.589-8,8-8s8,3.589,8,8S12.411,16,8,16z M8,1C4.141,1,1,4.141,1,8s3.141,7,7,7s7-3.141,7-7
		S11.859,1,8,1z"/> <path d="M8,9.5C7.724,9.5,7.5,9.276,7.5,9V3c0-0.276,0.224-0.5,0.5-0.5S8.5,2.724,8.5,3v6C8.5,9.276,8.276,9.5,8,9.5z"/> <g> <g> <path d="M8,11c-0.553,0-1,0.447-1,1s0.447,1,1,1s1-0.447,1-1S8.553,11,8,11L8,11z"/> </g> </g> </g>   
    </symbol>
    <symbol id="exit-16" viewBox="0 0 16 16">
       <g id="Layer_1"> <path d="M8.46,13.938H3.583c-0.867,0-1.572-0.705-1.572-1.572V2.51c0-0.867,0.705-1.572,1.572-1.572H8.46
		c0.867,0,1.572,0.705,1.572,1.572v1.896c0,0.276-0.224,0.5-0.5,0.5s-0.5-0.224-0.5-0.5V2.51c0-0.315-0.257-0.572-0.572-0.572H3.583
		c-0.315,0-0.572,0.257-0.572,0.572v9.855c0,0.315,0.257,0.572,0.572,0.572H8.46c0.315,0,0.572-0.257,0.572-0.572v-1.928
		c0-0.276,0.224-0.5,0.5-0.5s0.5,0.224,0.5,0.5v1.928C10.033,13.232,9.327,13.938,8.46,13.938z"/> <path d="M14.901,7.125l-2-2.5c-0.173-0.214-0.487-0.25-0.703-0.078c-0.215,0.173-0.25,0.487-0.078,0.703l1.35,1.688H5.979
		c-0.276,0-0.5,0.224-0.5,0.5s0.224,0.5,0.5,0.5h7.491l-1.35,1.688c-0.172,0.216-0.137,0.53,0.078,0.703
		c0.092,0.073,0.203,0.109,0.312,0.109c0.147,0,0.292-0.064,0.391-0.188l2-2.5C15.047,7.567,15.047,7.308,14.901,7.125z"/> </g>   
    </symbol>
    <symbol id="experiment-16" viewBox="0 0 16 16">
       <g id="Layer_1"> <path d="M15.5,16h-15C0.224,16,0,15.776,0,15.5V9.713c0-0.216,0.139-0.408,0.345-0.475l5.301-1.736
		c0.128-0.042,0.268-0.03,0.386,0.032l4.164,2.168l5.003-3.79c0.151-0.115,0.354-0.134,0.524-0.049C15.893,5.947,16,6.12,16,6.31
		v9.19C16,15.776,15.776,16,15.5,16z M1,15h14V7.316l-4.453,3.374c-0.154,0.118-0.362,0.135-0.532,0.045L5.757,8.518L1,10.075V15z"/> <path d="M10.269,6.093c-0.079,0-0.157-0.019-0.23-0.056L5.757,3.818l-5.102,1.67C0.392,5.574,0.11,5.432,0.024,5.169
		c-0.086-0.263,0.058-0.545,0.32-0.631l5.301-1.736c0.126-0.042,0.266-0.031,0.386,0.031l4.188,2.17l5.026-3.792
		c0.218-0.167,0.533-0.124,0.7,0.098c0.166,0.221,0.122,0.534-0.099,0.7l-5.277,3.981C10.481,6.059,10.375,6.093,10.269,6.093z"/> </g>   
    </symbol>
    <symbol id="external-16" viewBox="0 0 16 16">
       <g id="Layer_1"> <g> <path d="M12.5,16h-12C0.224,16,0,15.776,0,15.5v-12C0,3.224,0.224,3,0.5,3H6c0.276,0,0.5,0.224,0.5,0.5S6.276,4,6,4H1v11h11v-5
			c0-0.276,0.224-0.5,0.5-0.5S13,9.724,13,10v5.5C13,15.776,12.776,16,12.5,16z"/> <path d="M3.5,13c-0.128,0-0.256-0.049-0.354-0.146c-0.195-0.195-0.195-0.512,0-0.707l12-12c0.195-0.195,0.512-0.195,0.707,0
			s0.195,0.512,0,0.707l-12,12C3.756,12.951,3.628,13,3.5,13z"/> <path d="M15.5,7.5C15.224,7.5,15,7.276,15,7V1H9C8.724,1,8.5,0.776,8.5,0.5S8.724,0,9,0h6.5C15.776,0,16,0.224,16,0.5V7
			C16,7.276,15.776,7.5,15.5,7.5z"/> </g> </g>   
    </symbol>
    <symbol id="eye-16" viewBox="0 0 16 16">
       <g id="Layer_1"> <g id="XMLID_706_"> <path d="M8,12.479c-4.334,0-7.749-4.248-7.892-4.429c-0.144-0.182-0.144-0.439,0-0.621C0.251,7.248,3.666,3,8,3
			s7.749,4.248,7.892,4.429c0.144,0.182,0.144,0.439,0,0.621C15.749,8.23,12.334,12.479,8,12.479z M1.159,7.739
			C2.011,8.688,4.791,11.479,8,11.479s5.989-2.791,6.841-3.739C13.989,6.791,11.209,4,8,4S2.011,6.791,1.159,7.739z"/> <path d="M8,10.848c-1.714,0-3.109-1.395-3.109-3.108S6.286,4.631,8,4.631s3.109,1.395,3.109,3.108S9.714,10.848,8,10.848z
			 M8,5.631c-1.163,0-2.109,0.946-2.109,2.108S6.837,9.848,8,9.848s2.109-0.946,2.109-2.108S9.163,5.631,8,5.631z"/> </g> </g>   
    </symbol>
    <symbol id="eye-closed-16" viewBox="0 0 16 16">
       <g id="Layer_1"> <g id="XMLID_700_"> <path d="M8,12.598c-0.69,0-1.398-0.109-2.104-0.324c-0.264-0.081-0.413-0.36-0.332-0.624c0.081-0.265,0.359-0.413,0.624-0.333
			C6.799,11.503,7.409,11.598,8,11.598c3.21,0,5.99-2.792,6.841-3.739c-0.389-0.436-1.182-1.256-2.231-2.016
			c-0.224-0.162-0.274-0.475-0.112-0.698c0.162-0.225,0.475-0.273,0.698-0.112c1.628,1.179,2.653,2.462,2.696,2.516
			c0.145,0.182,0.145,0.439,0,0.621C15.749,8.35,12.334,12.598,8,12.598z"/> <path d="M3.087,10.772c-0.102,0-0.204-0.031-0.293-0.095C1.172,9.502,0.151,8.223,0.108,8.169c-0.144-0.182-0.144-0.439,0-0.621
			C0.251,7.367,3.666,3.119,8,3.119c0.575,0,1.166,0.077,1.757,0.229c0.268,0.068,0.429,0.341,0.36,0.608s-0.343,0.428-0.608,0.36
			C8.999,4.186,8.491,4.119,8,4.119c-3.21,0-5.99,2.792-6.841,3.739C1.547,8.292,2.336,9.11,3.381,9.867
			c0.224,0.162,0.273,0.475,0.111,0.698C3.395,10.701,3.242,10.772,3.087,10.772z"/> <path d="M5.391,8.358c-0.276,0-0.5-0.224-0.5-0.5C4.891,6.145,6.286,4.75,8,4.75c0.276,0,0.5,0.224,0.5,0.5S8.276,5.75,8,5.75
			c-1.163,0-2.109,0.946-2.109,2.108C5.891,8.135,5.667,8.358,5.391,8.358z"/> <path d="M8,10.968c-0.276,0-0.5-0.224-0.5-0.5s0.224-0.5,0.5-0.5c1.163,0,2.109-0.946,2.109-2.109c0-0.276,0.224-0.5,0.5-0.5
			s0.5,0.224,0.5,0.5C11.109,9.573,9.714,10.968,8,10.968z"/> <path d="M1.641,14.718c-0.128,0-0.256-0.049-0.354-0.146c-0.195-0.195-0.195-0.512,0-0.707L14.005,1.146
			c0.195-0.195,0.512-0.195,0.707,0s0.195,0.512,0,0.707L1.995,14.571C1.897,14.669,1.769,14.718,1.641,14.718z"/> </g> </g>   
    </symbol>
    <symbol id="feedback-16" viewBox="0 0 16 16">
       <g id="Layer_1"> <path d="M6.5,14.988c-0.06,0-0.12-0.011-0.178-0.033C6.128,14.882,6,14.695,6,14.488V11H1.5C0.617,11,0,10.456,0,9.677V1.5
		C0,0.673,0.673,0,1.5,0h13.009C15.331,0,16,0.673,16,1.5v8.177C16,10.468,15.401,11,14.509,11h-4.28
		c-0.424,0.542-1.364,1.594-3.356,3.821C6.776,14.93,6.64,14.988,6.5,14.988z M1.5,1C1.224,1,1,1.225,1,1.5v8.177
		C1,9.944,1.272,10,1.5,10h5C6.776,10,7,10.224,7,10.5v2.679c1.213-1.358,2.537-2.842,2.66-2.986C9.754,10.071,9.899,10,10.054,10
		h4.455C14.835,10,15,9.892,15,9.677V1.5C15,1.22,14.784,1,14.509,1H1.5z"/> <path d="M11,4H4C3.724,4,3.5,3.776,3.5,3.5S3.724,3,4,3h7c0.276,0,0.5,0.224,0.5,0.5S11.276,4,11,4z"/> <path d="M9,6H4C3.724,6,3.5,5.776,3.5,5.5S3.724,5,4,5h5c0.276,0,0.5,0.224,0.5,0.5S9.276,6,9,6z"/> <path d="M11,8H4C3.724,8,3.5,7.776,3.5,7.5S3.724,7,4,7h7c0.276,0,0.5,0.224,0.5,0.5S11.276,8,11,8z"/> </g>   
    </symbol>
    <symbol id="goal-16" viewBox="0 0 16 16">
       <g id="Layer_1"> <path d="M13.5,11H5.54c-0.276,0-0.5-0.224-0.5-0.5c0-0.574,0.463-1.088,1.028-1.5H3.5C3.224,9,3,8.776,3,8.5v-7
		C3,1.224,3.224,1,3.5,1h5C8.776,1,9,1.224,9,1.5V2h4.5C13.776,2,14,2.224,14,2.5v8C14,10.776,13.776,11,13.5,11z M6.414,10H13V3
		H8.5C8.224,3,8,2.776,8,2.5V2H4v6h4.061c0.24,0,0.446,0.17,0.491,0.406c0.045,0.236-0.083,0.47-0.306,0.559
		C7.513,9.256,6.821,9.658,6.414,10z"/> <path d="M8.5,9C8.224,9,8,8.776,8,8.5v-7C8,1.224,8.224,1,8.5,1S9,1.224,9,1.5v7C9,8.776,8.776,9,8.5,9z"/> <path d="M3.5,15.5C3.224,15.5,3,15.276,3,15V1c0-0.276,0.224-0.5,0.5-0.5S4,0.724,4,1v14C4,15.276,3.776,15.5,3.5,15.5z"/> <path d="M5.5,11C5.224,11,5,10.776,5,10.5V9c0-0.276,0.224-0.5,0.5-0.5S6,8.724,6,9v1.5C6,10.776,5.776,11,5.5,11z"/> </g>   
    </symbol>
    <symbol id="hamburger-16" viewBox="0 0 16 16">
       <g id="Layer_1"> <g> <path d="M14,3H2C1.724,3,1.5,2.776,1.5,2.5S1.724,2,2,2h12c0.276,0,0.5,0.224,0.5,0.5S14.276,3,14,3z"/> <path d="M14,8H2C1.724,8,1.5,7.776,1.5,7.5S1.724,7,2,7h12c0.276,0,0.5,0.224,0.5,0.5S14.276,8,14,8z"/> <path d="M14,13H2c-0.276,0-0.5-0.224-0.5-0.5S1.724,12,2,12h12c0.276,0,0.5,0.224,0.5,0.5S14.276,13,14,13z"/> </g> </g>   
    </symbol>
    <symbol id="help-16" viewBox="0 0 16 16">
       <g id="Layer_1"> <path d="M7.958,16C3.57,16,0,12.417,0,8.013C0,3.595,3.57,0,7.958,0C12.393,0,16,3.589,16,8S12.393,16,7.958,16z M7.958,1
		C4.121,1,1,4.146,1,8.013C1,11.931,4.057,15,7.958,15C11.841,15,15,11.859,15,8S11.841,1,7.958,1z"/> <path id="XMLID_754_" d="M6.995,8.871c0-1.602,2.113-1.76,2.113-2.876c0-0.513-0.406-0.946-1.247-0.946
		c-0.815,0-1.392,0.354-1.826,0.919L5.142,4.984c0.67-0.827,1.681-1.3,2.864-1.3c1.655,0,2.666,0.88,2.666,2.062
		c0,1.944-2.338,2.101-2.338,3.27c0,0.21,0.106,0.46,0.289,0.591l-1.168,0.395C7.139,9.699,6.995,9.305,6.995,8.871z M7.007,11.787
		c0-0.485,0.419-0.905,0.919-0.905c0.498,0,0.919,0.42,0.919,0.905c0,0.499-0.421,0.933-0.919,0.933
		C7.427,12.719,7.007,12.285,7.007,11.787z"/> </g>   
    </symbol>
    <symbol id="history-16" viewBox="0 0 16 16">
       <g id="Layer_1"> <path d="M2.961,9.19c-0.011,0-0.021,0-0.032-0.001c-0.155-0.01-0.298-0.092-0.384-0.222L0.584,6.026
		c-0.153-0.229-0.091-0.54,0.139-0.693C0.949,5.18,1.262,5.241,1.416,5.472l1.599,2.397l1.857-2.123
		c0.183-0.209,0.499-0.228,0.705-0.047c0.208,0.182,0.229,0.498,0.047,0.706L3.337,9.019C3.242,9.128,3.104,9.19,2.961,9.19z"/> <path d="M9.398,14.415c-0.268,0-0.49-0.212-0.5-0.481c-0.01-0.276,0.206-0.508,0.481-0.518c1.524-0.056,2.936-0.702,3.974-1.82
		c1.038-1.117,1.579-2.572,1.521-4.096c-0.114-3.146-2.737-5.587-5.915-5.496C7.373,2.062,5.856,2.81,4.798,4.053
		c-1.072,1.26-1.547,2.885-1.337,4.575c0.034,0.274-0.16,0.523-0.435,0.558c-0.271,0.038-0.523-0.16-0.558-0.435
		C2.224,6.78,2.78,4.881,4.037,3.405c1.239-1.457,3.021-2.331,4.886-2.4c3.722-0.162,6.816,2.76,6.952,6.458
		c0.066,1.791-0.568,3.5-1.789,4.813c-1.22,1.313-2.878,2.072-4.669,2.138C9.41,14.415,9.404,14.415,9.398,14.415z"/> <path d="M12,8H9.5C9.224,8,9,7.776,9,7.5V4c0-0.276,0.224-0.5,0.5-0.5S10,3.724,10,4v3h2c0.276,0,0.5,0.224,0.5,0.5S12.276,8,12,8z
		"/> </g>   
    </symbol>
    <symbol id="image-16" viewBox="0 0 16 16">
       <g id="Layer_1"> <g> <path d="M3.354,13.804l-0.846-0.535l3.112-4.917c0.086-0.135,0.23-0.221,0.391-0.231C6.17,8.111,6.326,8.177,6.428,8.299
			l1.746,2.095L10.1,6.156c0.082-0.182,0.277-0.308,0.465-0.293c0.199,0.004,0.378,0.126,0.453,0.311l2.932,7.177l-0.926,0.379
			L10.53,7.626l-1.775,3.906c-0.071,0.156-0.218,0.266-0.389,0.288c-0.162,0.021-0.34-0.043-0.45-0.175L6.1,9.467L3.354,13.804z"/> <path d="M15.5,16h-15C0.224,16,0,15.776,0,15.5v-15C0,0.224,0.224,0,0.5,0h15C15.776,0,16,0.224,16,0.5v15
			C16,15.776,15.776,16,15.5,16z M1,15h14V1H1V15z"/> <rect y="13" width="16" height="1"/> <path d="M4.691,6.413c-1.022,0-1.854-0.831-1.854-1.854s0.831-1.854,1.854-1.854c1.021,0,1.853,0.831,1.853,1.854
			S5.713,6.413,4.691,6.413z M4.691,3.706c-0.471,0-0.854,0.383-0.854,0.854s0.383,0.854,0.854,0.854
			c0.47,0,0.853-0.383,0.853-0.854S5.161,3.706,4.691,3.706z"/> </g> </g>   
    </symbol>
    <symbol id="inconclusive-16" viewBox="0 0 16 16">
       <g id="Layer_1"> <path d="M8,16c-4.411,0-8-3.589-8-8s3.589-8,8-8s8,3.589,8,8S12.411,16,8,16z M8,1C4.141,1,1,4.14,1,8s3.141,7,7,7s7-3.14,7-7
		S11.859,1,8,1z"/> <path d="M11,11.5c-0.128,0-0.256-0.049-0.354-0.146l-1.811-1.81c-0.195-0.195-0.195-0.512,0-0.707s0.512-0.195,0.707,0l1.811,1.81
		c0.195,0.195,0.195,0.512,0,0.707C11.256,11.451,11.128,11.5,11,11.5z"/> <path d="M8.5,9.5C8.224,9.5,8,9.276,8,9V4.413c0-0.276,0.224-0.5,0.5-0.5S9,4.137,9,4.413V9C9,9.276,8.776,9.5,8.5,9.5z"/> </g>   
    </symbol>
    <symbol id="integrations-16" viewBox="0 0 16 16">
       <g id="Layer_1"> <path d="M10.976,5.024C10.733,2.214,8.372,0,5.5,0C2.468,0,0,2.467,0,5.5c0,2.872,2.214,5.233,5.024,5.476
		C5.267,13.786,7.628,16,10.5,16c3.032,0,5.5-2.467,5.5-5.5C16,7.628,13.786,5.267,10.976,5.024z M1,5.5C1,3.019,3.019,1,5.5,1
		c2.32,0,4.212,1.771,4.452,4.028C7.356,5.286,5.286,7.356,5.028,9.952C2.771,9.712,1,7.82,1,5.5z M9.944,6.056
		C9.689,8.089,8.089,9.689,6.056,9.944C6.311,7.911,7.911,6.311,9.944,6.056z M10.5,15c-2.32,0-4.212-1.771-4.452-4.028
		c2.596-0.258,4.667-2.328,4.924-4.924C13.229,6.288,15,8.18,15,10.5C15,12.981,12.981,15,10.5,15z"/> </g>   
    </symbol>
    <symbol id="link-16" viewBox="0 0 16 16">
       <g id="Layer_1"> <g> <path d="M3.712,16c-0.828,0-1.606-0.322-2.192-0.908l-0.612-0.612c-1.208-1.208-1.208-3.174,0-4.382L4.89,6.115
			c1.173-1.172,3.213-1.172,4.383,0l0.613,0.613c0.195,0.195,0.195,0.512,0,0.707s-0.512,0.195-0.707,0L8.565,6.822
			c-0.793-0.793-2.176-0.793-2.969,0l-3.982,3.982c-0.818,0.818-0.818,2.149,0,2.968l0.612,0.612c0.792,0.792,2.176,0.794,2.97,0
			l2.757-2.756c0.195-0.195,0.512-0.195,0.707,0s0.195,0.512,0,0.707l-2.757,2.756C5.318,15.678,4.54,16,3.712,16z"/> <path d="M8.919,10.793c-0.828,0-1.606-0.322-2.19-0.908c-0.195-0.195-0.195-0.513,0-0.707c0.195-0.195,0.512-0.195,0.707,0
			c0.793,0.793,2.175,0.793,2.968,0l3.981-3.981C14.781,4.8,15,4.272,15,3.712s-0.219-1.088-0.615-1.484l-0.612-0.613
			c-0.818-0.818-2.149-0.818-2.968,0L8.048,4.371c-0.195,0.195-0.512,0.195-0.707,0s-0.195-0.512,0-0.707l2.757-2.757
			c1.208-1.208,3.174-1.206,4.382,0l0.612,0.613C15.678,2.105,16,2.884,16,3.712c0,0.827-0.322,1.605-0.908,2.191L11.11,9.885
			C10.524,10.471,9.746,10.793,8.919,10.793z"/> </g> </g>   
    </symbol>
    <symbol id="live-variables-16" viewBox="0 0 16 16">
       <g id="Layer_1"> <path d="M13.828,16H11c-0.276,0-0.5-0.224-0.5-0.5S10.724,15,11,15h2.828C14.474,15,15,14.474,15,13.827V2.173
		C15,1.526,14.474,1,13.828,1H11c-0.276,0-0.5-0.224-0.5-0.5S10.724,0,11,0h2.828C15.025,0,16,0.975,16,2.173v11.654
		C16,15.025,15.025,16,13.828,16z"/> <path d="M5,16H2.172C0.975,16,0,15.025,0,13.827V2.173C0,0.975,0.975,0,2.172,0H5c0.276,0,0.5,0.224,0.5,0.5S5.276,1,5,1H2.172
		C1.526,1,1,1.526,1,2.173v11.654C1,14.474,1.526,15,2.172,15H5c0.276,0,0.5,0.224,0.5,0.5S5.276,16,5,16z"/> <path d="M4.188,10.158c0.125-0.086,0.253-0.129,0.384-0.129c0.062,0,0.125,0.009,0.188,0.027c0.063,0.018,0.13,0.048,0.204,0.09
		l0.274,0.148c0.036,0.021,0.071,0.035,0.105,0.043c0.034,0.008,0.072,0.012,0.114,0.012c0.13,0,0.231-0.032,0.301-0.098
		S6.01,9.958,6.302,9.566c0.193-0.255,0.632-0.879,1.315-1.871c0-0.036-0.06-0.316-0.18-0.842c-0.12-0.524-0.229-0.969-0.329-1.335
		C7.009,5.148,6.92,4.904,6.842,4.787C6.764,4.669,6.618,4.61,6.404,4.61c-0.073,0-0.217,0.026-0.431,0.079
		C5.837,4.721,5.691,4.757,5.535,4.799l-0.07-0.243l0.869-0.297C6.558,4.18,6.765,4.117,6.956,4.07S7.309,4,7.445,4
		c0.219,0,0.384,0.065,0.494,0.195c0.167,0.209,0.308,0.622,0.423,1.237l0.164,0.893c0.47-0.72,0.835-1.227,1.096-1.519
		c0.235-0.267,0.457-0.465,0.666-0.596c0.209-0.13,0.407-0.195,0.595-0.195c0.177,0,0.321,0.026,0.431,0.078
		c0.198,0.094,0.297,0.271,0.297,0.532c0,0.178-0.05,0.316-0.148,0.415c-0.1,0.1-0.227,0.149-0.384,0.149
		c-0.058,0-0.112-0.007-0.165-0.02c-0.052-0.014-0.107-0.033-0.165-0.06l-0.204-0.086C10.488,5,10.433,4.978,10.381,4.959
		c-0.052-0.019-0.091-0.027-0.118-0.027c-0.235,0-0.561,0.305-0.979,0.912C8.868,6.452,8.659,6.803,8.659,6.896
		c0,0.079,0.048,0.333,0.145,0.764s0.202,0.887,0.317,1.366C9.225,9.48,9.314,9.794,9.387,9.966c0.12,0.282,0.256,0.423,0.407,0.423
		c0.141,0,0.285-0.078,0.431-0.234c0.146-0.157,0.365-0.438,0.658-0.846l0.219,0.133c-0.225,0.407-0.457,0.755-0.697,1.042
		c-0.454,0.543-0.888,0.813-1.3,0.813c-0.261,0-0.467-0.125-0.619-0.375c-0.089-0.146-0.175-0.387-0.258-0.721L7.743,8.268
		l-1.605,2.105c-0.313,0.366-0.555,0.611-0.725,0.736c-0.169,0.125-0.379,0.188-0.63,0.188c-0.334,0-0.562-0.104-0.682-0.312
		C4.034,10.874,4,10.744,4,10.593C4,10.389,4.062,10.244,4.188,10.158z"/> </g>   
    </symbol>
    <symbol id="lock-16" viewBox="0 0 16 16">
       <g id="Layer_1"> <path d="M14.5,16h-12C2.224,16,2,15.776,2,15.5v-10C2,5.224,2.224,5,2.5,5h12C14.776,5,15,5.224,15,5.5v10
		C15,15.776,14.776,16,14.5,16z M3,15h11V6H3V15z"/> <path d="M12.5,5.5C12.224,5.5,12,5.276,12,5V4.437c0-1.669-1.668-3.188-3.5-3.188S5,2.768,5,4.437V5c0,0.276-0.224,0.5-0.5,0.5
		S4,5.276,4,5V4.437c0-2.231,2.103-4.188,4.5-4.188S13,2.205,13,4.437V5C13,5.276,12.776,5.5,12.5,5.5z"/> <path d="M8.5,12.5C8.224,12.5,8,12.276,8,12v-2c0-0.276,0.224-0.5,0.5-0.5S9,9.724,9,10v2C9,12.276,8.776,12.5,8.5,12.5z"/> <g> <circle cx="8.488" cy="9.195" r="0.774"/> <path d="M8.488,10.468c-0.703,0-1.274-0.571-1.274-1.273s0.571-1.273,1.274-1.273c0.702,0,1.273,0.571,1.273,1.273
			S9.19,10.468,8.488,10.468z M8.488,8.921c-0.151,0-0.274,0.123-0.274,0.273c0,0.301,0.547,0.301,0.547,0
			C8.761,9.044,8.639,8.921,8.488,8.921z"/> </g> </g>   
    </symbol>
    <symbol id="loser-16" viewBox="0 0 16 16">
       <g id="Layer_1"> <path d="M8,16c-4.411,0-8-3.589-8-8s3.589-8,8-8c4.411,0,8,3.589,8,8S12.411,16,8,16z M8,0.667c-4.044,0-7.333,3.29-7.333,7.333
		S3.956,15.333,8,15.333s7.333-3.29,7.333-7.333S12.044,0.667,8,0.667z"/> <path d="M13.117,6.421c0-0.215-0.165-0.388-0.368-0.388s-0.368,0.174-0.368,0.388V9.64L9.215,5.734
		c-0.129-0.16-0.357-0.18-0.511-0.049L5.826,8.146L1.863,3.571c-0.138-0.158-0.371-0.168-0.52-0.025
		c-0.15,0.145-0.16,0.391-0.023,0.549L5.516,8.94C5.649,9.091,5.868,9.109,6.02,8.98l2.869-2.454l3.061,3.778H9.438
		c-0.203,0-0.368,0.174-0.368,0.388s0.165,0.388,0.368,0.388h3.311c0.046,0,0.091-0.011,0.134-0.028
		c0.018-0.007,0.032-0.02,0.048-0.03c0.019-0.012,0.04-0.019,0.057-0.035c0.004-0.003,0.005-0.008,0.009-0.012
		c0.019-0.019,0.033-0.042,0.048-0.065c0.013-0.019,0.027-0.036,0.037-0.057c0.009-0.02,0.011-0.042,0.017-0.064
		c0.007-0.028,0.015-0.055,0.016-0.083c0-0.005,0.003-0.009,0.003-0.014V6.421z"/> </g>   
    </symbol>
    <symbol id="minus-16" viewBox="0 0 16 16">
       <g id="Layer_1"> <path d="M13.999,8H2.001C1.724,8,1.5,7.776,1.5,7.5S1.724,7,2.001,7h11.998C14.276,7,14.5,7.224,14.5,7.5S14.276,8,13.999,8z"/> </g>   
    </symbol>
    <symbol id="mobile-16" viewBox="0 0 16 16">
       <g id="Layer_1"> <path d="M10.5,16h-6C3.673,16,3,15.258,3,14.346V1.654C3,0.742,3.673,0,4.5,0h6C11.327,0,12,0.742,12,1.654v12.691
		C12,15.258,11.327,16,10.5,16z M4.5,1C4.229,1,4,1.3,4,1.654v12.691C4,14.7,4.229,15,4.5,15h6c0.271,0,0.5-0.3,0.5-0.654V1.654
		C11,1.3,10.771,1,10.5,1H4.5z"/> <path d="M11.5,13h-8C3.224,13,3,12.776,3,12.5S3.224,12,3.5,12h8c0.276,0,0.5,0.224,0.5,0.5S11.776,13,11.5,13z"/> <path d="M11.5,3h-8C3.224,3,3,2.776,3,2.5S3.224,2,3.5,2h8C11.776,2,12,2.224,12,2.5S11.776,3,11.5,3z"/> <path d="M7.5,13.5C7.224,13.5,7,13.724,7,14s0.224,0.5,0.5,0.5S8,14.276,8,14S7.776,13.5,7.5,13.5L7.5,13.5z"/> </g>   
    </symbol>
    <symbol id="pages-16" viewBox="0 0 16 16">
       <g id="Layer_1"> <path d="M12.03,11H0.97C0.435,11,0,10.565,0,10.031V0.969C0,0.435,0.435,0,0.97,0H12.03C12.565,0,13,0.435,13,0.969v9.062
		C13,10.565,12.565,11,12.03,11z M12,0.969L0.971,1l0.032,9.031L12,10V0.969z"/> <path d="M15.045,14H2.969C2.435,14,2,13.68,2,13.146v-0.567c0-0.276,0.224-0.5,0.5-0.5s0.5,0.224,0.5,0.5v0.567l12.045-0.031
		l-0.031-9.146c-0.276,0-0.484-0.208-0.484-0.484S14.762,3,15.038,3C15.572,3,16,3.435,16,3.969v9.177C16,13.68,15.579,14,15.045,14
		z"/> <path d="M11.979,3H1C0.724,3,0.5,2.776,0.5,2.5S0.724,2,1,2h10.979c0.276,0,0.5,0.224,0.5,0.5S12.256,3,11.979,3z"/> <path d="M15.01,6c-0.13,0-0.26-0.05-0.35-0.15c-0.091-0.09-0.15-0.22-0.15-0.35s0.06-0.26,0.15-0.351
		c0.189-0.189,0.52-0.189,0.71-0.01c0.09,0.101,0.14,0.23,0.14,0.36s-0.05,0.26-0.14,0.35C15.27,5.95,15.149,6,15.01,6z"/> </g>   
    </symbol>
    <symbol id="paperclip-16" viewBox="0 0 16 16">
       <g id="Layer_1"> <g> <path d="M7.5,15.759c-0.934,0-2.5-0.428-2.5-3.29V4.72C5,2.117,6.341,0.5,8.5,0.5S12,2.117,12,4.72V10c0,0.276-0.224,0.5-0.5,0.5
			S11,10.276,11,10V4.72c0-0.755-0.181-3.22-2.5-3.22S6,3.965,6,4.72v7.749c0,2.029,0.802,2.29,1.5,2.29S9,14.498,9,12.469v-5.89
			C9,6.065,9.001,5.654,8.91,5.42c-0.037-0.094-0.078-0.2-0.41-0.2s-0.373,0.106-0.41,0.2C7.999,5.654,8,6.065,8,6.501V11
			c0,0.276-0.224,0.5-0.5,0.5S7,11.276,7,11V6.579C7,5.97,6.999,5.467,7.158,5.058C7.307,4.676,7.66,4.22,8.5,4.22
			s1.193,0.456,1.342,0.838C10.001,5.467,10,5.97,10,6.502v5.967C10,15.331,8.434,15.759,7.5,15.759z"/> </g> </g>   
    </symbol>
    <symbol id="parent-selector-16" viewBox="0 0 16 16">
       <g id="Layer_1"> <path d="M15,13H8.161C6.094,13,4,11.854,4,9.661V3c0-0.276,0.224-0.5,0.5-0.5S5,2.724,5,3v6.661C5,11.196,6.59,12,8.161,12H15
		c0.276,0,0.5,0.224,0.5,0.5S15.276,13,15,13z"/> <path d="M8,7C7.872,7,7.744,6.951,7.646,6.854L4.5,3.707L1.354,6.854c-0.195,0.195-0.512,0.195-0.707,0s-0.195-0.512,0-0.707
		l3.5-3.5c0.195-0.195,0.512-0.195,0.707,0l3.5,3.5c0.195,0.195,0.195,0.512,0,0.707C8.256,6.951,8.128,7,8,7z"/> </g>   
    </symbol>
    <symbol id="pause-16" viewBox="0 0 16 16">
       <g id="Layer_1"> <g id="XMLID_761_"> <path d="M6.5,16h-4C2.224,16,2,15.776,2,15.5v-15C2,0.224,2.224,0,2.5,0h4C6.776,0,7,0.224,7,0.5v15C7,15.776,6.776,16,6.5,16z
			 M3,15h3V1H3V15z"/> <path d="M13.5,16h-4C9.224,16,9,15.776,9,15.5v-15C9,0.224,9.224,0,9.5,0h4C13.776,0,14,0.224,14,0.5v15
			C14,15.776,13.776,16,13.5,16z M10,15h3V1h-3V15z"/> </g> </g>   
    </symbol>
    <symbol id="play-16" viewBox="0 0 16 16">
       <g id="Layer_1"> <g id="XMLID_758_"> <path d="M0.5,16c-0.091,0-0.183-0.025-0.263-0.074C0.09,15.834,0,15.673,0,15.5v-15c0-0.173,0.09-0.334,0.237-0.426
			c0.147-0.09,0.331-0.099,0.486-0.021l15,7.5C15.893,7.638,16,7.811,16,8s-0.107,0.362-0.276,0.447l-15,7.5
			C0.653,15.982,0.577,16,0.5,16z M1,1.309v13.383L14.382,8L1,1.309z"/> </g> </g>   
    </symbol>
    <symbol id="projects-16" viewBox="0 0 16 16">
       <g id="Layer_1"> <g> <path d="M2.428,5H1.572C0.705,5,0,4.295,0,3.428V2.572C0,1.705,0.705,1,1.572,1h0.855C3.295,1,4,1.705,4,2.572v0.855
			C4,4.295,3.295,5,2.428,5z M1.572,2C1.257,2,1,2.257,1,2.572v0.855C1,3.743,1.257,4,1.572,4h0.855C2.743,4,3,3.743,3,3.428V2.572
			C3,2.257,2.743,2,2.428,2H1.572z"/> <path d="M2.428,10H1.572C0.705,10,0,9.295,0,8.428V7.572C0,6.705,0.705,6,1.572,6h0.855C3.295,6,4,6.705,4,7.572v0.855
			C4,9.295,3.295,10,2.428,10z M1.572,7C1.257,7,1,7.257,1,7.572v0.855C1,8.743,1.257,9,1.572,9h0.855C2.743,9,3,8.743,3,8.428
			V7.572C3,7.257,2.743,7,2.428,7H1.572z"/> <path d="M2.428,15H1.572C0.705,15,0,14.295,0,13.428v-0.855C0,11.705,0.705,11,1.572,11h0.855C3.295,11,4,11.705,4,12.572v0.855
			C4,14.295,3.295,15,2.428,15z M1.572,12C1.257,12,1,12.257,1,12.572v0.855C1,13.743,1.257,14,1.572,14h0.855
			C2.743,14,3,13.743,3,13.428v-0.855C3,12.257,2.743,12,2.428,12H1.572z"/> </g> <path d="M14.428,5H6.572C5.705,5,5,4.295,5,3.428V2.572C5,1.705,5.705,1,6.572,1h7.855C15.295,1,16,1.705,16,2.572v0.855
		C16,4.295,15.295,5,14.428,5z M6.572,2C6.257,2,6,2.257,6,2.572v0.855C6,3.743,6.257,4,6.572,4h7.855C14.743,4,15,3.743,15,3.428
		V2.572C15,2.257,14.743,2,14.428,2H6.572z"/> <path d="M14.428,10H6.572C5.705,10,5,9.295,5,8.428V7.572C5,6.705,5.705,6,6.572,6h7.855C15.295,6,16,6.705,16,7.572v0.855
		C16,9.295,15.295,10,14.428,10z M6.572,7C6.257,7,6,7.257,6,7.572v0.855C6,8.743,6.257,9,6.572,9h7.855C14.743,9,15,8.743,15,8.428
		V7.572C15,7.257,14.743,7,14.428,7H6.572z"/> <path d="M14.428,15H6.572C5.705,15,5,14.295,5,13.428v-0.855C5,11.705,5.705,11,6.572,11h7.855C15.295,11,16,11.705,16,12.572
		v0.855C16,14.295,15.295,15,14.428,15z M6.572,12C6.257,12,6,12.257,6,12.572v0.855C6,13.743,6.257,14,6.572,14h7.855
		C14.743,14,15,13.743,15,13.428v-0.855C15,12.257,14.743,12,14.428,12H6.572z"/> </g>   
    </symbol>
    <symbol id="redirect-16" viewBox="0 0 16 16">
       <g id="Layer_1"> <g> <path d="M6.772,7.281c-0.211,0-0.407-0.135-0.476-0.346C6.29,6.916,5.648,5,4.087,5H1C0.724,5,0.5,4.776,0.5,4.5S0.724,4,1,4
			h3.087c2.295,0,3.127,2.522,3.162,2.63c0.083,0.263-0.061,0.543-0.323,0.628C6.875,7.273,6.823,7.281,6.772,7.281z"/> <path d="M4.087,12H1c-0.276,0-0.5-0.224-0.5-0.5S0.724,11,1,11h3.087c1.359,0,2.396-1.59,3.494-3.273
			C8.776,5.895,10.012,4,11.913,4H15c0.276,0,0.5,0.224,0.5,0.5S15.276,5,15,5h-3.087c-1.359,0-2.396,1.59-3.494,3.273
			C7.224,10.105,5.988,12,4.087,12z"/> <path d="M15,12h-3.087C9.74,12,8.081,9.942,8.011,9.855c-0.171-0.217-0.136-0.53,0.08-0.702c0.216-0.173,0.53-0.138,0.703,0.079
			C8.808,9.25,10.227,11,11.913,11H15c0.276,0,0.5,0.224,0.5,0.5S15.276,12,15,12z"/> <path d="M14.195,6.913c-0.095,0-0.191-0.027-0.277-0.084c-0.229-0.153-0.292-0.464-0.139-0.693l1.119-1.68L13.78,2.777
			c-0.153-0.229-0.091-0.54,0.139-0.693c0.229-0.153,0.541-0.092,0.693,0.139l1.304,1.956c0.112,0.168,0.112,0.387,0,0.555
			L14.612,6.69C14.516,6.835,14.357,6.913,14.195,6.913z"/> <path d="M14.195,14.087c-0.095,0-0.191-0.027-0.277-0.084c-0.23-0.153-0.292-0.464-0.139-0.693l1.119-1.679l-1.119-1.68
			c-0.153-0.229-0.091-0.54,0.139-0.693c0.229-0.153,0.541-0.092,0.693,0.139l1.304,1.957c0.112,0.168,0.112,0.387,0,0.555
			l-1.304,1.956C14.516,14.009,14.357,14.087,14.195,14.087z"/> </g> </g>   
    </symbol>
    <symbol id="redo-16" viewBox="0 0 16 16">
       <g id="Layer_1"> <path d="M7,15H4.678C2.186,15,0,12.663,0,10s2.186-5,4.678-5H15c0.276,0,0.5,0.224,0.5,0.5S15.276,6,15,6H4.678
		C2.719,6,1,7.869,1,10s1.719,4,3.678,4H7c0.276,0,0.5,0.224,0.5,0.5S7.276,15,7,15z"/> <path d="M12.287,9.257c-0.128,0-0.256-0.049-0.354-0.146c-0.195-0.195-0.195-0.512,0-0.707l2.859-2.86l-2.859-2.859
		c-0.195-0.195-0.195-0.512,0-0.707s0.512-0.195,0.707,0l3.213,3.213c0.195,0.195,0.195,0.512,0,0.707L12.641,9.11
		C12.543,9.208,12.415,9.257,12.287,9.257z"/> </g>   
    </symbol>
    <symbol id="refresh-16" viewBox="0 0 16 16">
       <g id="Layer_1"> <path d="M6.987,14.955c2.36,0,4.524-1.167,5.83-3.156c0.151-0.231,0.087-0.541-0.144-0.692c-0.229-0.151-0.54-0.089-0.692,0.144
		c-1.161,1.77-3.119,2.777-5.223,2.7c-1.596-0.058-3.073-0.734-4.16-1.904S0.945,9.354,1.005,7.758
		c0.121-3.293,2.922-5.88,6.193-5.753c1.681,0.062,3.271,0.829,4.363,2.107c0.854,0.999,1.339,2.242,1.415,3.584l-1.532-1.752
		c-0.183-0.21-0.499-0.228-0.705-0.047c-0.208,0.182-0.229,0.497-0.047,0.705l2.386,2.728c0.102,0.117,0.253,0.184,0.408,0.17
		c0.155-0.01,0.298-0.092,0.384-0.222l2.046-3.068c0.153-0.229,0.091-0.54-0.139-0.693c-0.228-0.152-0.539-0.092-0.693,0.139
		l-1.13,1.695c-0.139-1.449-0.695-2.791-1.632-3.888c-1.273-1.49-3.128-2.386-5.087-2.458c-3.812-0.124-7.089,2.87-7.23,6.716
		c-0.068,1.862,0.593,3.641,1.861,5.006s2.993,2.155,4.855,2.224C6.81,14.953,6.899,14.955,6.987,14.955z"/> </g>   
    </symbol>
    <symbol id="save-16" viewBox="0 0 16 16">
       <g id="Layer_1"> <g id="XMLID_309_"> <path d="M6.37,10.782c-0.128,0-0.256-0.049-0.354-0.146l-1.63-1.63c-0.195-0.195-0.195-0.512,0-0.707s0.512-0.195,0.707,0
			l1.289,1.288l4.538-4.234c0.202-0.188,0.519-0.178,0.707,0.024c0.188,0.201,0.177,0.518-0.024,0.706l-4.891,4.564
			C6.615,10.737,6.492,10.782,6.37,10.782z"/> <path d="M8,16c-4.411,0-8-3.589-8-8s3.589-8,8-8s8,3.589,8,8S12.411,16,8,16z M8,1C4.14,1,1,4.141,1,8s3.14,7,7,7s7-3.141,7-7
			S11.86,1,8,1z"/> </g> </g>   
    </symbol>
    <symbol id="search-16" viewBox="0 0 16 16">
       <g id="Layer_1"> <g> <g> <path d="M6.21,12.417C2.786,12.417,0,9.632,0,6.209C0,2.785,2.786,0,6.21,0c3.422,0,6.206,2.785,6.206,6.209
				C12.416,9.632,9.632,12.417,6.21,12.417z M6.21,1C3.337,1,1,3.337,1,6.209s2.337,5.208,5.21,5.208
				c2.87,0,5.206-2.336,5.206-5.208S9.08,1,6.21,1z"/> <path d="M15.5,16c-0.128,0-0.256-0.049-0.354-0.146l-5.25-5.25c-0.195-0.195-0.195-0.512,0-0.707s0.512-0.195,0.707,0l5.25,5.25
				c0.195,0.195,0.195,0.512,0,0.707C15.756,15.951,15.628,16,15.5,16z"/> </g> </g> </g>   
    </symbol>
    <symbol id="settings-16" viewBox="0 0 16 16">
       <g id="Layer_1"> <g id="XMLID_64_"> <path d="M8.413,15H6.587c-0.276,0-0.5-0.224-0.5-0.5v-1.586c-0.401-0.105-0.826-0.234-1.182-0.392l-1.141,1.142
			c-0.188,0.188-0.52,0.188-0.707,0l-1.722-1.722c-0.094-0.094-0.146-0.221-0.146-0.354s0.053-0.26,0.146-0.354l1.141-1.141
			C2.32,9.739,2.191,9.314,2.086,8.913H0.5c-0.276,0-0.5-0.224-0.5-0.5V6.587c0-0.276,0.224-0.5,0.5-0.5h1.586
			C2.191,5.686,2.32,5.261,2.477,4.905L1.335,3.765C1.242,3.671,1.189,3.544,1.189,3.411s0.053-0.26,0.146-0.354l1.722-1.722
			c0.195-0.195,0.512-0.195,0.707,0l1.141,1.141c0.356-0.157,0.781-0.285,1.181-0.391V0.5c0-0.276,0.224-0.5,0.5-0.5h1.826
			c0.276,0,0.5,0.224,0.5,0.5v1.586c0.4,0.105,0.825,0.233,1.181,0.391l1.141-1.141c0.195-0.195,0.512-0.195,0.707,0l1.722,1.722
			c0.094,0.094,0.146,0.221,0.146,0.354s-0.053,0.26-0.146,0.354l-1.141,1.141c0.157,0.356,0.286,0.781,0.39,1.182H14.5
			c0.276,0,0.5,0.224,0.5,0.5v1.826c0,0.276-0.224,0.5-0.5,0.5h-1.586c-0.105,0.401-0.234,0.826-0.391,1.182l1.141,1.141
			c0.195,0.195,0.195,0.512,0,0.707l-1.722,1.722c-0.195,0.195-0.512,0.195-0.707,0l-1.142-1.141
			c-0.354,0.156-0.78,0.285-1.181,0.391V14.5C8.913,14.776,8.689,15,8.413,15z M7.087,14h0.826v-1.476
			c0-0.23,0.158-0.432,0.382-0.486c0.332-0.08,1.212-0.293,1.634-0.552c0.195-0.119,0.45-0.092,0.614,0.073l1.045,1.044l1.015-1.015
			l-1.044-1.044c-0.164-0.163-0.193-0.417-0.073-0.614c0.259-0.423,0.472-1.304,0.552-1.635c0.054-0.225,0.255-0.383,0.486-0.383H14
			V7.087h-1.477c-0.231,0-0.432-0.158-0.486-0.383c-0.072-0.299-0.291-1.209-0.551-1.635c-0.12-0.197-0.09-0.451,0.073-0.614
			l1.044-1.044l-1.015-1.015L10.544,3.44C10.38,3.604,10.125,3.633,9.93,3.514C9.503,3.253,8.595,3.034,8.296,2.963
			C8.071,2.908,7.913,2.708,7.913,2.477V1H7.087v1.477c0,0.231-0.158,0.432-0.383,0.486C6.405,3.034,5.496,3.253,5.07,3.514
			C4.873,3.633,4.619,3.604,4.456,3.44L3.411,2.396L2.396,3.411L3.44,4.455c0.163,0.163,0.193,0.417,0.073,0.614
			C3.255,5.493,3.042,6.373,2.962,6.704C2.908,6.929,2.707,7.087,2.476,7.087H1v0.826h1.476c0.231,0,0.432,0.158,0.486,0.383
			c0.08,0.331,0.293,1.212,0.552,1.635c0.12,0.197,0.09,0.451-0.073,0.614l-1.044,1.044l1.015,1.015l1.044-1.045
			c0.163-0.164,0.417-0.192,0.615-0.073c0.423,0.26,1.303,0.473,1.635,0.553c0.225,0.055,0.382,0.256,0.382,0.486V14z"/> <path d="M7.5,10.739c-1.786,0-3.239-1.453-3.239-3.239S5.714,4.261,7.5,4.261s3.239,1.453,3.239,3.239S9.286,10.739,7.5,10.739z
			 M7.5,5.261c-1.235,0-2.239,1.005-2.239,2.239S6.265,9.739,7.5,9.739S9.739,8.734,9.739,7.5S8.735,5.261,7.5,5.261z"/> </g> </g>   
    </symbol>
    <symbol id="star-16" viewBox="0 0 16 16">
       <g id="Layer_1"> <g> <path d="M3.349,15.096c-0.104,0-0.207-0.032-0.295-0.096c-0.153-0.112-0.23-0.302-0.198-0.489L3.69,9.672L0.152,6.243
			C0.016,6.11-0.034,5.911,0.024,5.729C0.083,5.549,0.24,5.416,0.429,5.389l4.893-0.706l2.186-4.405
			c0.169-0.339,0.726-0.341,0.896,0l2.188,4.405l4.892,0.706c0.188,0.027,0.346,0.16,0.404,0.341
			c0.059,0.182,0.01,0.381-0.128,0.514l-3.537,3.428l0.835,4.84c0.032,0.188-0.045,0.377-0.198,0.489
			c-0.154,0.112-0.357,0.127-0.526,0.039l-4.377-2.286L3.58,15.039C3.508,15.077,3.428,15.096,3.349,15.096z M7.955,11.688
			c0.079,0,0.159,0.019,0.231,0.057l3.712,1.939L11.19,9.581c-0.027-0.163,0.026-0.329,0.146-0.444l2.996-2.903l-4.144-0.599
			c-0.163-0.023-0.304-0.126-0.377-0.272L7.955,1.624L6.101,5.362C6.027,5.509,5.887,5.611,5.724,5.635L1.579,6.233l2.997,2.903
			c0.119,0.115,0.173,0.281,0.146,0.444l-0.708,4.104l3.71-1.939C7.796,11.707,7.876,11.688,7.955,11.688z"/> </g> </g>   
    </symbol>
    <symbol id="sync-16" viewBox="0 0 16 16">
       <g id="Layer_1"> <path d="M8.212,13.843c1.558,0,3.024-0.593,4.15-1.683c0.198-0.192,0.204-0.509,0.012-0.707c-0.193-0.198-0.51-0.203-0.707-0.012
		c-0.982,0.951-2.283,1.457-3.644,1.397c-1.4-0.051-2.726-0.691-3.635-1.756c-0.661-0.774-1.058-1.725-1.16-2.753l1.143,1.306
		c0.182,0.21,0.498,0.229,0.705,0.047c0.208-0.182,0.229-0.497,0.047-0.705L3.105,6.671c-0.102-0.117-0.253-0.185-0.408-0.17
		C2.541,6.512,2.399,6.593,2.313,6.723L0.584,9.317c-0.153,0.229-0.091,0.54,0.139,0.693c0.229,0.151,0.539,0.092,0.693-0.139
		l0.838-1.257c0.15,1.159,0.618,2.231,1.374,3.117c1.091,1.276,2.68,2.044,4.358,2.106C8.062,13.841,8.137,13.843,8.212,13.843z"/> <path d="M13.202,9c0.011,0,0.021,0,0.033-0.001c0.155-0.011,0.297-0.092,0.383-0.222l1.729-2.595
		c0.153-0.229,0.091-0.54-0.139-0.693c-0.228-0.153-0.538-0.092-0.693,0.139l-0.839,1.258c-0.149-1.159-0.617-2.232-1.373-3.117
		c-1.09-1.277-2.679-2.045-4.358-2.107c-1.713-0.047-3.349,0.605-4.528,1.83C3.226,3.69,3.231,4.007,3.431,4.198
		c0.197,0.19,0.514,0.188,0.707-0.014C5.12,3.164,6.491,2.594,7.908,2.661c1.401,0.051,2.726,0.691,3.635,1.757
		c0.661,0.773,1.057,1.724,1.159,2.752L11.56,5.864c-0.182-0.209-0.499-0.228-0.705-0.047c-0.208,0.182-0.229,0.497-0.047,0.705
		l2.019,2.307C12.921,8.938,13.059,9,13.202,9z"/> </g>   
    </symbol>
    <symbol id="tablet-16" viewBox="0 0 16 16">
       <g id="Layer_1"> <path d="M12.397,16H3.603C2.719,16,2,15.258,2,14.346V1.654C2,0.742,2.719,0,3.603,0h8.795C13.281,0,14,0.742,14,1.654v12.691
		C14,15.258,13.281,16,12.397,16z M3.603,1C3.271,1,3,1.294,3,1.654v12.691C3,14.706,3.271,15,3.603,15h8.795
		C12.729,15,13,14.706,13,14.346V1.654C13,1.294,12.729,1,12.397,1H3.603z"/> <path d="M10.858,14h-5.65C4.542,14,4,13.396,4,12.654V3.346C4,2.604,4.542,2,5.208,2h5.65C11.524,2,12,2.604,12,3.346v9.309
		C12,13.396,11.524,14,10.858,14z M5.208,3C5.111,3,5,3.151,5,3.346v9.309C5,12.849,5.111,13,5.208,13h5.65
		C10.955,13,11,12.849,11,12.654V3.346C11,3.151,10.955,3,10.858,3H5.208z"/> <path d="M8,13.5c-0.553,0-1,0.447-1,1s0.447,1,1,1s1-0.447,1-1S8.553,13.5,8,13.5L8,13.5z"/> </g>   
    </symbol>
    <symbol id="tags-16" viewBox="0 0 16 16">
       <g id="Layer_1"> <g id="XMLID_426_"> <path d="M9.63,16c-0.133,0-0.26-0.053-0.354-0.146l-9.13-9.131C0.053,6.629,0,6.502,0,6.369V1.805c0-0.276,0.224-0.5,0.5-0.5
			h4.565c0.133,0,0.26,0.053,0.354,0.146l9.13,9.13c0.094,0.094,0.146,0.221,0.146,0.354s-0.053,0.26-0.146,0.354l-4.565,4.565
			C9.89,15.947,9.763,16,9.63,16z M1,6.162l8.63,8.631l3.858-3.858l-8.63-8.63H1V6.162z"/> <path d="M3.435,6.218c-0.815,0-1.478-0.663-1.478-1.479S2.62,3.261,3.435,3.261c0.815,0,1.479,0.663,1.479,1.479
			S4.25,6.218,3.435,6.218z M3.435,4.261c-0.264,0-0.478,0.215-0.478,0.479s0.214,0.479,0.478,0.479s0.479-0.215,0.479-0.479
			S3.698,4.261,3.435,4.261z"/> </g> </g>   
    </symbol>
    <symbol id="trash-16" viewBox="0 0 16 16">
       <g id="Layer_1"> <path d="M13.046,16H3.954c-0.269,0-0.489-0.213-0.5-0.481L3,3.519C2.995,3.383,3.046,3.251,3.14,3.153C3.234,3.056,3.364,3,3.5,3
		h10c0.136,0,0.266,0.056,0.36,0.153c0.094,0.098,0.145,0.229,0.14,0.365l-0.454,12C13.535,15.787,13.314,16,13.046,16z M4.436,15
		h8.129L12.98,4H4.02L4.436,15z"/> <path d="M10.5,4h-4C6.224,4,6,3.776,6,3.5v-2C6,1.224,6.224,1,6.5,1h4C10.776,1,11,1.224,11,1.5v2C11,3.776,10.776,4,10.5,4z M7,3
		h3V2H7V3z"/> <path d="M15,4H2C1.724,4,1.5,3.776,1.5,3.5S1.724,3,2,3h13c0.276,0,0.5,0.224,0.5,0.5S15.276,4,15,4z"/> <path d="M6.5,13.5C6.224,13.5,6,13.276,6,13V6c0-0.276,0.224-0.5,0.5-0.5S7,5.724,7,6v7C7,13.276,6.776,13.5,6.5,13.5z"/> <path d="M8.5,13.5C8.224,13.5,8,13.276,8,13V6c0-0.276,0.224-0.5,0.5-0.5S9,5.724,9,6v7C9,13.276,8.776,13.5,8.5,13.5z"/> <path d="M10.5,13.5c-0.276,0-0.5-0.224-0.5-0.5V6c0-0.276,0.224-0.5,0.5-0.5S11,5.724,11,6v7C11,13.276,10.776,13.5,10.5,13.5z"/> </g>   
    </symbol>
    <symbol id="undo-16" viewBox="0 0 16 16">
       <g id="Layer_1"> <path d="M11.322,15H9c-0.276,0-0.5-0.224-0.5-0.5S8.724,14,9,14h2.322C13.281,14,15,12.131,15,10s-1.719-4-3.678-4H1
		C0.724,6,0.5,5.776,0.5,5.5S0.724,5,1,5h10.322C13.814,5,16,7.337,16,10S13.814,15,11.322,15z"/> <path d="M3.713,9.257c-0.128,0-0.256-0.049-0.354-0.146L0.146,5.896c-0.195-0.195-0.195-0.512,0-0.707l3.213-3.213
		c0.195-0.195,0.512-0.195,0.707,0s0.195,0.512,0,0.707L1.207,5.543l2.859,2.86c0.195,0.195,0.195,0.512,0,0.707
		C3.969,9.208,3.841,9.257,3.713,9.257z"/> </g>   
    </symbol>
    <symbol id="upload-16" viewBox="0 0 16 16">
       <g id="Layer_1"> <path d="M7.5,14.5C7.224,14.5,7,14.276,7,14V4c0-0.276,0.224-0.5,0.5-0.5S8,3.724,8,4v10C8,14.276,7.776,14.5,7.5,14.5z"/> <path d="M10,7.625c-0.146,0-0.292-0.064-0.391-0.188L7.5,4.801L5.391,7.438C5.219,7.653,4.903,7.687,4.687,7.516
		c-0.216-0.173-0.25-0.487-0.078-0.703l2.5-3.125c0.189-0.236,0.592-0.236,0.781,0l2.5,3.125c0.172,0.216,0.138,0.53-0.078,0.703
		C10.22,7.589,10.109,7.625,10,7.625z"/> <path d="M12.5,11H10c-0.276,0-0.5-0.224-0.5-0.5S9.724,10,10,10h2V1H3v9h2c0.276,0,0.5,0.224,0.5,0.5S5.276,11,5,11H2.5
		C2.224,11,2,10.776,2,10.5v-10C2,0.224,2.224,0,2.5,0h10C12.776,0,13,0.224,13,0.5v10C13,10.776,12.776,11,12.5,11z"/> </g>   
    </symbol>
    <symbol id="userlist-16" viewBox="0 0 16 16">
       <g id="Layer_1"> <path d="M1.089,14.087c-0.065,0-0.13-0.013-0.19-0.038c-0.683-0.28-0.311-1.852-0.307-1.867c0.101-0.367,0.455-0.479,1.399-0.781
		c0.397-0.126,1.062-0.339,1.204-0.45c0.088-0.092,0.202-0.571,0.221-0.975C3.429,9.7,3.686,9.47,3.939,9.501
		c0.276,0.013,0.489,0.247,0.476,0.523c-0.013,0.271-0.089,1.193-0.514,1.633c-0.231,0.239-0.689,0.403-1.606,0.696
		c-0.241,0.077-0.577,0.185-0.765,0.26c-0.015,0.136-0.027,0.318-0.029,0.473l7.249-0.014c0.004-0.149,0-0.322-0.01-0.447
		c-0.19-0.072-0.524-0.178-0.785-0.259c-0.995-0.311-1.489-0.484-1.721-0.728c-0.432-0.455-0.385-1.362-0.36-1.63
		c0.025-0.274,0.279-0.481,0.543-0.451C6.691,9.582,6.894,9.825,6.869,10.1c-0.03,0.335,0.015,0.757,0.091,0.853
		c0.132,0.097,0.859,0.324,1.292,0.46c0.893,0.278,1.183,0.378,1.338,0.602c0.188,0.271,0.265,1.562-0.066,1.905
		c-0.094,0.097-0.224,0.152-0.359,0.152L1.089,14.087C1.089,14.087,1.089,14.087,1.089,14.087z"/> <path d="M5.067,10.837c-1.056,0-2.048-0.935-2.723-2.563C2.147,7.796,2.029,6.763,2.029,5.51C2.029,3.574,3.392,2,5.067,2
		c1.704,0,3.039,1.519,3.039,3.457c0,0.626-0.031,2.153-0.319,2.817C7.08,9.903,6.089,10.837,5.067,10.837z M5.067,3
		C3.943,3,3.029,4.126,3.029,5.51c0,1.423,0.151,2.166,0.24,2.381c0.595,1.437,1.341,1.946,1.799,1.946
		c0.439,0,1.174-0.514,1.802-1.961c0.114-0.263,0.236-1.131,0.236-2.419C7.106,4.079,6.21,3,5.067,3z"/> <path d="M15.5,3H10C9.724,3,9.5,2.776,9.5,2.5S9.724,2,10,2h5.5C15.776,2,16,2.224,16,2.5S15.776,3,15.5,3z"/> <path d="M15.5,5H10C9.724,5,9.5,4.776,9.5,4.5S9.724,4,10,4h5.5C15.776,4,16,4.224,16,4.5S15.776,5,15.5,5z"/> <path d="M15.5,7H10C9.724,7,9.5,6.776,9.5,6.5S9.724,6,10,6h5.5C15.776,6,16,6.224,16,6.5S15.776,7,15.5,7z"/> <path d="M15.5,9h-4C11.224,9,11,8.776,11,8.5S11.224,8,11.5,8h4C15.776,8,16,8.224,16,8.5S15.776,9,15.5,9z"/> </g>   
    </symbol>
    <symbol id="variation-settings-16" viewBox="0 0 16 16">
       <g id="Layer_1"> <path d="M14.848,15H1.152C0.517,15,0,14.47,0,13.818V1.182C0,0.53,0.517,0,1.152,0h13.695C15.483,0,16,0.53,16,1.182v12.637
		C16,14.47,15.483,15,14.848,15z M1.152,1C1.068,1,1,1.081,1,1.182v12.637C1,13.919,1.068,14,1.152,14h13.695
		C14.932,14,15,13.919,15,13.818V1.182C15,1.081,14.932,1,14.848,1H1.152z"/> <path d="M13,5h-1.5C11.224,5,11,4.776,11,4.5S11.224,4,11.5,4H13c0.276,0,0.5,0.224,0.5,0.5S13.276,5,13,5z"/> <path d="M8,5H3C2.724,5,2.5,4.776,2.5,4.5S2.724,4,3,4h5c0.276,0,0.5,0.224,0.5,0.5S8.276,5,8,5z"/> <path d="M13,11H8c-0.276,0-0.5-0.224-0.5-0.5S7.724,10,8,10h5c0.276,0,0.5,0.224,0.5,0.5S13.276,11,13,11z"/> <path d="M5,11H3c-0.276,0-0.5-0.224-0.5-0.5S2.724,10,3,10h2c0.276,0,0.5,0.224,0.5,0.5S5.276,11,5,11z"/> <path d="M9.5,6.25c-0.965,0-1.75-0.785-1.75-1.75S8.535,2.75,9.5,2.75s1.75,0.785,1.75,1.75S10.465,6.25,9.5,6.25z M9.5,3.75
		c-0.414,0-0.75,0.337-0.75,0.75S9.086,5.25,9.5,5.25s0.75-0.337,0.75-0.75S9.914,3.75,9.5,3.75z"/> <path d="M6.508,12.25c-0.965,0-1.75-0.785-1.75-1.75s0.785-1.75,1.75-1.75s1.75,0.785,1.75,1.75S7.473,12.25,6.508,12.25z
		 M6.508,9.75c-0.414,0-0.75,0.337-0.75,0.75s0.336,0.75,0.75,0.75s0.75-0.337,0.75-0.75S6.921,9.75,6.508,9.75z"/> </g>   
    </symbol>
    <symbol id="winner-16" viewBox="0 0 16 16">
         <g id="Layer_3"> <path d="M8,16c-4.411,0-8-3.589-8-8s3.589-8,8-8c4.411,0,8,3.589,8,8S12.411,16,8,16z M8,0.667c-4.044,0-7.333,3.29-7.333,7.333
		S3.956,15.333,8,15.333s7.333-3.29,7.333-7.333S12.044,0.667,8,0.667z"/> <path d="M12.667,4h-3C9.482,4,9.333,4.163,9.333,4.364s0.149,0.364,0.333,0.364h2.372L9.169,8.395l-2.6-2.302
		C6.432,5.974,6.233,5.989,6.113,6.13l-3.803,4.545c-0.124,0.149-0.115,0.379,0.021,0.515c0.064,0.064,0.145,0.095,0.225,0.095
		c0.09,0,0.18-0.04,0.246-0.118l3.591-4.292l2.608,2.309c0.139,0.124,0.345,0.104,0.463-0.046l2.868-3.665v2.898
		c0,0.201,0.149,0.364,0.333,0.364C12.851,8.735,13,8.573,13,8.371V4.364C13,4.163,12.851,4,12.667,4z"/> </g> 
    </symbol></svg>