<?xml version="1.0" encoding="UTF-8"?>
<svg width="58px" height="58px" viewBox="0 0 58 58" version="1.1" xmlns="http://www.w3.org/2000/svg" xmlns:xlink="http://www.w3.org/1999/xlink">
    <!-- Generator: Sketch 43.2 (39069) - http://www.bohemiancoding.com/sketch -->
    <title>Avatar</title>
    <desc>Created with Sketch.</desc>
    <defs>
        <circle id="path-1" cx="24" cy="24" r="24"></circle>
        <filter x="-16.7%" y="-12.5%" width="133.3%" height="133.3%" filterUnits="objectBoundingBox" id="filter-3">
            <feMorphology radius="1" operator="dilate" in="SourceAlpha" result="shadowSpreadOuter1"></feMorphology>
            <feOffset dx="0" dy="2" in="shadowSpreadOuter1" result="shadowOffsetOuter1"></feOffset>
            <feGaussianBlur stdDeviation="2" in="shadowOffsetOuter1" result="shadowBlurOuter1"></feGaussianBlur>
            <feComposite in="shadowBlurOuter1" in2="SourceAlpha" operator="out" result="shadowBlurOuter1"></feComposite>
            <feColorMatrix values="0 0 0 0 0   0 0 0 0 0   0 0 0 0 0  0 0 0 0.2 0" type="matrix" in="shadowBlurOuter1"></feColorMatrix>
        </filter>
    </defs>
    <g id="Page-1" stroke="none" stroke-width="1" fill="none" fill-rule="evenodd">
        <g id="Avatar" transform="translate(5.000000, 3.000000)">
            <mask id="mask-2" fill="white">
                <use xlink:href="#path-1"></use>
            </mask>
            <g id="Mask">
                <use fill="black" fill-opacity="1" filter="url(#filter-3)" xlink:href="#path-1"></use>
                <use fill="#F0A86E" fill-rule="evenodd" xlink:href="#path-1"></use>
                <circle stroke="#FFFFFF" stroke-width="1" cx="24" cy="24" r="24.5"></circle>
            </g>
            <path d="M33.427313,37.8357472 C29.487896,36.1388923 30.0263499,35.1097713 29.8846964,33.70305 C29.865923,33.5165965 29.8535497,33.3190497 29.845443,33.1163828 C31.0277375,31.9869951 31.9975517,30.5179804 32.6460856,28.8445922 C32.6460856,28.8445922 32.6836323,28.7507254 32.694299,28.7221387 C32.8453391,28.3210717 32.9793126,27.902938 33.0945127,27.4766976 C33.9973402,27.2983507 34.5234207,26.3396298 34.7248076,25.4530157 C34.9279011,25.0941887 35.3498748,24.2097079 35.2530214,23.2061869 C35.1339813,21.9735458 34.6420341,21.3740786 34.0762736,21.1048517 C34.2285938,20.7434647 34.3693939,20.370131 34.4837407,19.9989306 C35.0674212,18.1036755 34.5131807,13.8600449 33.5553131,11.5202028 C32.5978722,9.18078728 28.6000019,7.40030563 27.3328007,7.45278568 C26.2332797,7.49801238 26,8 25.3436789,7.66666667 C24.6666667,7.33333333 25.1119986,7.6609992 24.805225,7.43699899 C23.6463973,6.59177154 19.9945539,6.21502453 18.2994057,7.50825239 C16.6042574,8.80190693 16.2053237,9.50249424 14.9014292,11.3589226 C13.597108,13.215351 13.1712942,17.7678886 13.3001477,18.7381295 C13.3795078,19.3393034 13.6248413,20.2958909 13.9051616,21.1142383 C13.3470811,21.3881586 12.865374,21.9876258 12.7476138,23.2066136 C12.6507604,24.2101345 13.0727341,25.0946154 13.2758277,25.4534424 C13.4802012,26.3554165 14.021215,27.3320574 14.9534826,27.4856576 C15.0691093,27.9140313 15.2052161,28.334725 15.3579629,28.7392054 C16.0658036,30.5593671 17.0629245,32.0552618 18.2789256,33.1923295 C18.270819,33.368543 18.259299,33.5404899 18.2430856,33.7034767 C18.1014321,35.1106246 18.5157259,36.1393189 14.5763089,37.8361738 C10.6360386,39.5326021 4.70707306,41.3399638 3.49192527,44.0714863 C2.27720414,46.8025822 2.76232459,48.409837 2.76232459,48.409837 L45.2357506,48.409837 C45.2357506,48.409837 45.7255644,46.8025822 44.5104166,44.0714863 C43.2956955,41.3399638 37.36673,39.5326021 33.427313,37.8357472 Z" id="Shape" fill="#F27802" mask="url(#mask-2)"></path>
        </g>
    </g>
</svg>