<?xml version="1.0" encoding="UTF-8"?>
<svg width="60px" height="55px" viewBox="0 0 60 55" version="1.1" xmlns="http://www.w3.org/2000/svg" xmlns:xlink="http://www.w3.org/1999/xlink">
    <!-- Generator: Sketch 43.2 (39069) - http://www.bohemiancoding.com/sketch -->
    <title>Price Bubble</title>
    <desc>Created with Sketch.</desc>
    <defs>
        <path d="M40,0 L8,0 C3.58,0 0,3.58 0,8 L0,24 C0,28.42 3.58,32 8,32 L8,44 L20,32 L40,32 C44.42,32 48,28.42 48,24 L48,8 C48,3.58 44.42,0 40,0" id="path-1"></path>
        <filter x="-20.8%" y="-18.2%" width="141.7%" height="145.5%" filterUnits="objectBoundingBox" id="filter-2">
            <feOffset dx="0" dy="2" in="SourceAlpha" result="shadowOffsetOuter1"></feOffset>
            <feGaussianBlur stdDeviation="3" in="shadowOffsetOuter1" result="shadowBlurOuter1"></feGaussianBlur>
            <feColorMatrix values="0 0 0 0 0   0 0 0 0 0   0 0 0 0 0  0 0 0 0.2 0" type="matrix" in="shadowBlurOuter1"></feColorMatrix>
        </filter>
    </defs>
    <g id="Page-1" stroke="none" stroke-width="1" fill="none" fill-rule="evenodd">
        <g id="Price-Bubble" transform="translate(30.000000, 26.000000) scale(-1, 1) translate(-30.000000, -26.000000) translate(6.000000, 4.000000)">
            <g id="Page-1">
                <use fill="black" fill-opacity="1" filter="url(#filter-2)" xlink:href="#path-1"></use>
                <use fill="#FFFFFF" fill-rule="evenodd" xlink:href="#path-1"></use>
            </g>
            <path d="M33.616,16.666 C33.824,16.988 33.926,17.392 33.926,17.874 C33.926,18.428 33.816,18.908 33.594,19.312 C33.372,19.716 33.074,20.05 32.7,20.314 C32.324,20.578 31.896,20.774 31.412,20.9 C31.278,20.936 31.142,20.954 31.006,20.98 L31.006,22 L29.004,22 L29.004,21.016 C28.576,20.958 28.156,20.872 27.746,20.73 C27.046,20.49 26.464,20.146 26,19.7 L27.656,18.146 C27.914,18.436 28.25,18.68 28.67,18.876 C29.088,19.07 29.506,19.168 29.92,19.168 C30.106,19.168 30.29,19.15 30.466,19.114 C30.644,19.078 30.8,19.018 30.932,18.936 C31.066,18.854 31.17,18.746 31.25,18.61 C31.328,18.474 31.368,18.31 31.368,18.118 C31.368,17.936 31.318,17.782 31.22,17.654 C31.122,17.528 30.982,17.412 30.8,17.308 C30.616,17.202 30.39,17.106 30.118,17.02 C29.848,16.934 29.54,16.842 29.194,16.742 C28.86,16.642 28.532,16.522 28.212,16.386 C27.89,16.25 27.606,16.076 27.354,15.862 C27.102,15.648 26.9,15.388 26.748,15.084 C26.594,14.78 26.518,14.41 26.518,13.972 C26.518,13.436 26.636,12.976 26.874,12.594 C27.11,12.214 27.42,11.9 27.804,11.654 C28.16,11.426 28.564,11.262 29.004,11.148 L29.004,10 L31.006,10 L31.006,10.982 C31.458,11.018 31.914,11.094 32.382,11.246 C32.998,11.446 33.538,11.74 34,12.132 L32.388,13.7 C32.172,13.446 31.888,13.242 31.538,13.092 C31.188,12.944 30.85,12.868 30.526,12.868 C30.358,12.868 30.188,12.882 30.016,12.908 C29.842,12.936 29.688,12.988 29.55,13.066 C29.412,13.142 29.296,13.242 29.202,13.366 C29.108,13.488 29.062,13.646 29.062,13.836 C29.062,14 29.098,14.136 29.172,14.246 C29.246,14.354 29.356,14.45 29.498,14.532 C29.64,14.614 29.81,14.688 30.008,14.756 C30.204,14.824 30.426,14.896 30.674,14.968 C31.028,15.078 31.398,15.198 31.782,15.33 C32.166,15.462 32.516,15.636 32.832,15.854 C33.148,16.072 33.41,16.344 33.616,16.666" id="Fill-1" fill="#4E4D4D" transform="translate(30.000000, 16.000000) scale(-1, 1) translate(-30.000000, -16.000000) "></path>
            <path d="M21.616,16.666 C21.824,16.988 21.926,17.392 21.926,17.874 C21.926,18.428 21.816,18.908 21.594,19.312 C21.372,19.716 21.074,20.05 20.7,20.314 C20.324,20.578 19.896,20.774 19.412,20.9 C19.278,20.936 19.142,20.954 19.006,20.98 L19.006,22 L17.004,22 L17.004,21.016 C16.576,20.958 16.156,20.872 15.746,20.73 C15.046,20.49 14.464,20.146 14,19.7 L15.656,18.146 C15.914,18.436 16.25,18.68 16.67,18.876 C17.088,19.07 17.506,19.168 17.92,19.168 C18.106,19.168 18.29,19.15 18.466,19.114 C18.644,19.078 18.8,19.018 18.932,18.936 C19.066,18.854 19.17,18.746 19.25,18.61 C19.328,18.474 19.368,18.31 19.368,18.118 C19.368,17.936 19.318,17.782 19.22,17.654 C19.122,17.528 18.982,17.412 18.8,17.308 C18.616,17.202 18.39,17.106 18.118,17.02 C17.848,16.934 17.54,16.842 17.194,16.742 C16.86,16.642 16.532,16.522 16.212,16.386 C15.89,16.25 15.606,16.076 15.354,15.862 C15.102,15.648 14.9,15.388 14.748,15.084 C14.594,14.78 14.518,14.41 14.518,13.972 C14.518,13.436 14.636,12.976 14.874,12.594 C15.11,12.214 15.42,11.9 15.804,11.654 C16.16,11.426 16.564,11.262 17.004,11.148 L17.004,10 L19.006,10 L19.006,10.982 C19.458,11.018 19.914,11.094 20.382,11.246 C20.998,11.446 21.538,11.74 22,12.132 L20.388,13.7 C20.172,13.446 19.888,13.242 19.538,13.092 C19.188,12.944 18.85,12.868 18.526,12.868 C18.358,12.868 18.188,12.882 18.016,12.908 C17.842,12.936 17.688,12.988 17.55,13.066 C17.412,13.142 17.296,13.242 17.202,13.366 C17.108,13.488 17.062,13.646 17.062,13.836 C17.062,14 17.098,14.136 17.172,14.246 C17.246,14.354 17.356,14.45 17.498,14.532 C17.64,14.614 17.81,14.688 18.008,14.756 C18.204,14.824 18.426,14.896 18.674,14.968 C19.028,15.078 19.398,15.198 19.782,15.33 C20.166,15.462 20.516,15.636 20.832,15.854 C21.148,16.072 21.41,16.344 21.616,16.666" id="Fill-1" fill="#4E4D4D" transform="translate(18.000000, 16.000000) scale(-1, 1) translate(-18.000000, -16.000000) "></path>
        </g>
    </g>
</svg>