<?xml version="1.0" encoding="UTF-8"?>
<svg width="60px" height="55px" viewBox="0 0 60 55" version="1.1" xmlns="http://www.w3.org/2000/svg" xmlns:xlink="http://www.w3.org/1999/xlink">
    <!-- Generator: Sketch 43.2 (39069) - http://www.bohemiancoding.com/sketch -->
    <title>Price Bubble</title>
    <desc>Created with Sketch.</desc>
    <defs>
        <path d="M40,0 L8,0 C3.58,0 0,3.58 0,8 L0,24 C0,28.42 3.58,32 8,32 L8,44 L20,32 L40,32 C44.42,32 48,28.42 48,24 L48,8 C48,3.58 44.42,0 40,0" id="path-1"></path>
        <filter x="-20.8%" y="-18.2%" width="141.7%" height="145.5%" filterUnits="objectBoundingBox" id="filter-2">
            <feOffset dx="0" dy="2" in="SourceAlpha" result="shadowOffsetOuter1"></feOffset>
            <feGaussianBlur stdDeviation="3" in="shadowOffsetOuter1" result="shadowBlurOuter1"></feGaussianBlur>
            <feColorMatrix values="0 0 0 0 0   0 0 0 0 0   0 0 0 0 0  0 0 0 0.2 0" type="matrix" in="shadowBlurOuter1"></feColorMatrix>
        </filter>
    </defs>
    <g id="Page-1" stroke="none" stroke-width="1" fill="none" fill-rule="evenodd">
        <g id="Price-Bubble" transform="translate(6.000000, 4.000000)">
            <g id="Page-1">
                <use fill="black" fill-opacity="1" filter="url(#filter-2)" xlink:href="#path-1"></use>
                <use fill="#FFFFFF" fill-rule="evenodd" xlink:href="#path-1"></use>
            </g>
            <path d="M15.616,16.666 C15.824,16.988 15.926,17.392 15.926,17.874 C15.926,18.428 15.816,18.908 15.594,19.312 C15.372,19.716 15.074,20.05 14.7,20.314 C14.324,20.578 13.896,20.774 13.412,20.9 C13.278,20.936 13.142,20.954 13.006,20.98 L13.006,22 L11.004,22 L11.004,21.016 C10.576,20.958 10.156,20.872 9.746,20.73 C9.046,20.49 8.464,20.146 8,19.7 L9.656,18.146 C9.914,18.436 10.25,18.68 10.67,18.876 C11.088,19.07 11.506,19.168 11.92,19.168 C12.106,19.168 12.29,19.15 12.466,19.114 C12.644,19.078 12.8,19.018 12.932,18.936 C13.066,18.854 13.17,18.746 13.25,18.61 C13.328,18.474 13.368,18.31 13.368,18.118 C13.368,17.936 13.318,17.782 13.22,17.654 C13.122,17.528 12.982,17.412 12.8,17.308 C12.616,17.202 12.39,17.106 12.118,17.02 C11.848,16.934 11.54,16.842 11.194,16.742 C10.86,16.642 10.532,16.522 10.212,16.386 C9.89,16.25 9.606,16.076 9.354,15.862 C9.102,15.648 8.9,15.388 8.748,15.084 C8.594,14.78 8.518,14.41 8.518,13.972 C8.518,13.436 8.636,12.976 8.874,12.594 C9.11,12.214 9.42,11.9 9.804,11.654 C10.16,11.426 10.564,11.262 11.004,11.148 L11.004,10 L13.006,10 L13.006,10.982 C13.458,11.018 13.914,11.094 14.382,11.246 C14.998,11.446 15.538,11.74 16,12.132 L14.388,13.7 C14.172,13.446 13.888,13.242 13.538,13.092 C13.188,12.944 12.85,12.868 12.526,12.868 C12.358,12.868 12.188,12.882 12.016,12.908 C11.842,12.936 11.688,12.988 11.55,13.066 C11.412,13.142 11.296,13.242 11.202,13.366 C11.108,13.488 11.062,13.646 11.062,13.836 C11.062,14 11.098,14.136 11.172,14.246 C11.246,14.354 11.356,14.45 11.498,14.532 C11.64,14.614 11.81,14.688 12.008,14.756 C12.204,14.824 12.426,14.896 12.674,14.968 C13.028,15.078 13.398,15.198 13.782,15.33 C14.166,15.462 14.516,15.636 14.832,15.854 C15.148,16.072 15.41,16.344 15.616,16.666" id="Fill-1" fill="#4E4D4D"></path>
            <path d="M27.616,16.666 C27.824,16.988 27.926,17.392 27.926,17.874 C27.926,18.428 27.816,18.908 27.594,19.312 C27.372,19.716 27.074,20.05 26.7,20.314 C26.324,20.578 25.896,20.774 25.412,20.9 C25.278,20.936 25.142,20.954 25.006,20.98 L25.006,22 L23.004,22 L23.004,21.016 C22.576,20.958 22.156,20.872 21.746,20.73 C21.046,20.49 20.464,20.146 20,19.7 L21.656,18.146 C21.914,18.436 22.25,18.68 22.67,18.876 C23.088,19.07 23.506,19.168 23.92,19.168 C24.106,19.168 24.29,19.15 24.466,19.114 C24.644,19.078 24.8,19.018 24.932,18.936 C25.066,18.854 25.17,18.746 25.25,18.61 C25.328,18.474 25.368,18.31 25.368,18.118 C25.368,17.936 25.318,17.782 25.22,17.654 C25.122,17.528 24.982,17.412 24.8,17.308 C24.616,17.202 24.39,17.106 24.118,17.02 C23.848,16.934 23.54,16.842 23.194,16.742 C22.86,16.642 22.532,16.522 22.212,16.386 C21.89,16.25 21.606,16.076 21.354,15.862 C21.102,15.648 20.9,15.388 20.748,15.084 C20.594,14.78 20.518,14.41 20.518,13.972 C20.518,13.436 20.636,12.976 20.874,12.594 C21.11,12.214 21.42,11.9 21.804,11.654 C22.16,11.426 22.564,11.262 23.004,11.148 L23.004,10 L25.006,10 L25.006,10.982 C25.458,11.018 25.914,11.094 26.382,11.246 C26.998,11.446 27.538,11.74 28,12.132 L26.388,13.7 C26.172,13.446 25.888,13.242 25.538,13.092 C25.188,12.944 24.85,12.868 24.526,12.868 C24.358,12.868 24.188,12.882 24.016,12.908 C23.842,12.936 23.688,12.988 23.55,13.066 C23.412,13.142 23.296,13.242 23.202,13.366 C23.108,13.488 23.062,13.646 23.062,13.836 C23.062,14 23.098,14.136 23.172,14.246 C23.246,14.354 23.356,14.45 23.498,14.532 C23.64,14.614 23.81,14.688 24.008,14.756 C24.204,14.824 24.426,14.896 24.674,14.968 C25.028,15.078 25.398,15.198 25.782,15.33 C26.166,15.462 26.516,15.636 26.832,15.854 C27.148,16.072 27.41,16.344 27.616,16.666" id="Fill-1" fill="#4E4D4D"></path>
            <path d="M39.616,16.666 C39.824,16.988 39.926,17.392 39.926,17.874 C39.926,18.428 39.816,18.908 39.594,19.312 C39.372,19.716 39.074,20.05 38.7,20.314 C38.324,20.578 37.896,20.774 37.412,20.9 C37.278,20.936 37.142,20.954 37.006,20.98 L37.006,22 L35.004,22 L35.004,21.016 C34.576,20.958 34.156,20.872 33.746,20.73 C33.046,20.49 32.464,20.146 32,19.7 L33.656,18.146 C33.914,18.436 34.25,18.68 34.67,18.876 C35.088,19.07 35.506,19.168 35.92,19.168 C36.106,19.168 36.29,19.15 36.466,19.114 C36.644,19.078 36.8,19.018 36.932,18.936 C37.066,18.854 37.17,18.746 37.25,18.61 C37.328,18.474 37.368,18.31 37.368,18.118 C37.368,17.936 37.318,17.782 37.22,17.654 C37.122,17.528 36.982,17.412 36.8,17.308 C36.616,17.202 36.39,17.106 36.118,17.02 C35.848,16.934 35.54,16.842 35.194,16.742 C34.86,16.642 34.532,16.522 34.212,16.386 C33.89,16.25 33.606,16.076 33.354,15.862 C33.102,15.648 32.9,15.388 32.748,15.084 C32.594,14.78 32.518,14.41 32.518,13.972 C32.518,13.436 32.636,12.976 32.874,12.594 C33.11,12.214 33.42,11.9 33.804,11.654 C34.16,11.426 34.564,11.262 35.004,11.148 L35.004,10 L37.006,10 L37.006,10.982 C37.458,11.018 37.914,11.094 38.382,11.246 C38.998,11.446 39.538,11.74 40,12.132 L38.388,13.7 C38.172,13.446 37.888,13.242 37.538,13.092 C37.188,12.944 36.85,12.868 36.526,12.868 C36.358,12.868 36.188,12.882 36.016,12.908 C35.842,12.936 35.688,12.988 35.55,13.066 C35.412,13.142 35.296,13.242 35.202,13.366 C35.108,13.488 35.062,13.646 35.062,13.836 C35.062,14 35.098,14.136 35.172,14.246 C35.246,14.354 35.356,14.45 35.498,14.532 C35.64,14.614 35.81,14.688 36.008,14.756 C36.204,14.824 36.426,14.896 36.674,14.968 C37.028,15.078 37.398,15.198 37.782,15.33 C38.166,15.462 38.516,15.636 38.832,15.854 C39.148,16.072 39.41,16.344 39.616,16.666" id="Fill-1" fill="#4E4D4D"></path>
        </g>
    </g>
</svg>