<?xml version="1.0" encoding="UTF-8"?>
<svg width="60px" height="55px" viewBox="0 0 60 55" version="1.1" xmlns="http://www.w3.org/2000/svg" xmlns:xlink="http://www.w3.org/1999/xlink">
    <!-- Generator: Sketch 43.2 (39069) - http://www.bohemiancoding.com/sketch -->
    <title>Price Bubble Copy 2</title>
    <desc>Created with Sketch.</desc>
    <defs>
        <path d="M40,0 L8,0 C3.58,0 0,3.58 0,8 L0,24 C0,28.42 3.58,32 8,32 L8,44 L20,32 L40,32 C44.42,32 48,28.42 48,24 L48,8 C48,3.58 44.42,0 40,0" id="path-1"></path>
        <filter x="-20.8%" y="-18.2%" width="141.7%" height="145.5%" filterUnits="objectBoundingBox" id="filter-2">
            <feOffset dx="0" dy="2" in="SourceAlpha" result="shadowOffsetOuter1"></feOffset>
            <feGaussianBlur stdDeviation="3" in="shadowOffsetOuter1" result="shadowBlurOuter1"></feGaussianBlur>
            <feColorMatrix values="0 0 0 0 0   0 0 0 0 0   0 0 0 0 0  0 0 0 0.2 0" type="matrix" in="shadowBlurOuter1"></feColorMatrix>
        </filter>
    </defs>
    <g id="Page-1" stroke="none" stroke-width="1" fill="none" fill-rule="evenodd">
        <g id="Price-Bubble-Copy-2" transform="translate(6.000000, 4.000000)">
            <g id="Page-1">
                <use fill="black" fill-opacity="1" filter="url(#filter-2)" xlink:href="#path-1"></use>
                <use fill="#FFFFFF" fill-rule="evenodd" xlink:href="#path-1"></use>
            </g>
            <path d="M27.6152,16.6658 C27.8232,16.9878 27.9252,17.3918 27.9252,17.8738 C27.9252,18.4278 27.8152,18.9078 27.5932,19.3118 C27.3712,19.7158 27.0732,20.0498 26.6992,20.3138 C26.3232,20.5778 25.8952,20.7738 25.4112,20.8998 C25.2772,20.9358 25.1412,20.9538 25.0052,20.9798 L25.0052,21.9998 L23.0032,21.9998 L23.0032,21.0158 C22.5752,20.9578 22.1552,20.8718 21.7452,20.7298 C21.0452,20.4898 20.4632,20.1458 19.9992,19.6998 L21.6552,18.1458 C21.9132,18.4358 22.2492,18.6798 22.6692,18.8758 C23.0872,19.0698 23.5052,19.1678 23.9192,19.1678 C24.1052,19.1678 24.2892,19.1498 24.4652,19.1138 C24.6432,19.0778 24.7992,19.0178 24.9312,18.9358 C25.0652,18.8538 25.1692,18.7458 25.2492,18.6098 C25.3272,18.4738 25.3672,18.3098 25.3672,18.1178 C25.3672,17.9358 25.3172,17.7818 25.2192,17.6538 C25.1212,17.5278 24.9812,17.4118 24.7992,17.3078 C24.6152,17.2018 24.3892,17.1058 24.1172,17.0198 C23.8472,16.9338 23.5392,16.8418 23.1932,16.7418 C22.8592,16.6418 22.5312,16.5218 22.2112,16.3858 C21.8892,16.2498 21.6052,16.0758 21.3532,15.8618 C21.1012,15.6478 20.8992,15.3878 20.7472,15.0838 C20.5932,14.7798 20.5172,14.4098 20.5172,13.9718 C20.5172,13.4358 20.6352,12.9758 20.8732,12.5938 C21.1092,12.2138 21.4192,11.8998 21.8032,11.6538 C22.1592,11.4258 22.5632,11.2618 23.0032,11.1478 L23.0032,9.9998 L25.0052,9.9998 L25.0052,10.9818 C25.4572,11.0178 25.9132,11.0938 26.3812,11.2458 C26.9972,11.4458 27.5372,11.7398 27.9992,12.1318 L26.3872,13.6998 C26.1712,13.4458 25.8872,13.2418 25.5372,13.0918 C25.1872,12.9438 24.8492,12.8678 24.5252,12.8678 C24.3572,12.8678 24.1872,12.8818 24.0152,12.9078 C23.8412,12.9358 23.6872,12.9878 23.5492,13.0658 C23.4112,13.1418 23.2952,13.2418 23.2012,13.3658 C23.1072,13.4878 23.0612,13.6458 23.0612,13.8358 C23.0612,13.9998 23.0972,14.1358 23.1712,14.2458 C23.2452,14.3538 23.3552,14.4498 23.4972,14.5318 C23.6392,14.6138 23.8092,14.6878 24.0072,14.7558 C24.2032,14.8238 24.4252,14.8958 24.6732,14.9678 C25.0272,15.0778 25.3972,15.1978 25.7812,15.3298 C26.1652,15.4618 26.5152,15.6358 26.8312,15.8538 C27.1472,16.0718 27.4092,16.3438 27.6152,16.6658" id="Fill-1" fill="#4E4D4D"></path>
        </g>
    </g>
</svg>