<svg xmlns="http://www.w3.org/2000/svg" width="24" height="24" viewBox="0 0 24 24">
  <path fill-rule="evenodd" d="M12,22 C6.4771525,22 2,17.5228475 2,12 C2,6.4771525 6.4771525,2 12,2 C17.5228475,2 22,6.4771525 22,12 C22,17.5228475 17.5228475,22 12,22 Z M13.0342307,11 C13.0342307,10.448 12.536453,10 11.9231196,10 L10,10 L10,12 L10.9755358,12 L10.9755358,17 C10.9755358,17.552 11.4733136,18 12.0866469,18 L14.0230108,18 L14.0230108,16 L13.0342307,16 L13.0342307,11 Z M11.5,8 C12.3284271,8 13,7.32842712 13,6.5 C13,5.67157288 12.3284271,5 11.5,5 C10.6715729,5 10,5.67157288 10,6.5 C10,7.32842712 10.6715729,8 11.5,8 Z"/>
</svg>
